<mxfile host="app.diagrams.net" agent="Mozilla/5.0 (Windows NT 10.0; Win64; x64) AppleWebKit/537.36 (KHTML, like Gecko) Chrome/126.0.0.0 Safari/537.36 NetType/WIFI MicroMessenger/7.0.20.1781(0x6700143B) WindowsWechat(0x63090c33) XWEB/14185 Flue" version="28.0.7">
  <diagram name="第 1 页" id="1C-Byv3yT71dT1thCb6_">
    <mxGraphModel dx="1737" dy="1412" grid="0" gridSize="10" guides="1" tooltips="1" connect="1" arrows="1" fold="1" page="0" pageScale="1" pageWidth="2339" pageHeight="3300" background="none" math="0" shadow="0">
      <root>
        <mxCell id="0" />
        <mxCell id="1" parent="0" />
        <mxCell id="VwRyxHcg7Cd_OR6Td61z-1" value="Conv" style="rounded=1;whiteSpace=wrap;html=1;fillColor=#f8cecc;strokeColor=#b85450;" parent="1" vertex="1">
          <mxGeometry x="40" y="40" width="80" height="40" as="geometry" />
        </mxCell>
        <mxCell id="VwRyxHcg7Cd_OR6Td61z-3" value="" style="endArrow=classic;html=1;rounded=0;entryX=0.5;entryY=0;entryDx=0;entryDy=0;" parent="1" target="VwRyxHcg7Cd_OR6Td61z-1" edge="1">
          <mxGeometry width="50" height="50" relative="1" as="geometry">
            <mxPoint x="80" as="sourcePoint" />
            <mxPoint x="90" y="20" as="targetPoint" />
            <Array as="points" />
          </mxGeometry>
        </mxCell>
        <mxCell id="VwRyxHcg7Cd_OR6Td61z-4" value="" style="endArrow=classic;html=1;rounded=0;exitX=0.5;exitY=1;exitDx=0;exitDy=0;" parent="1" source="VwRyxHcg7Cd_OR6Td61z-1" edge="1">
          <mxGeometry width="50" height="50" relative="1" as="geometry">
            <mxPoint x="360" y="230" as="sourcePoint" />
            <mxPoint x="80" y="120" as="targetPoint" />
          </mxGeometry>
        </mxCell>
        <mxCell id="VwRyxHcg7Cd_OR6Td61z-5" value="Conv" style="rounded=1;whiteSpace=wrap;html=1;fillColor=#f8cecc;strokeColor=#b85450;" parent="1" vertex="1">
          <mxGeometry x="40" y="120" width="80" height="40" as="geometry" />
        </mxCell>
        <mxCell id="VwRyxHcg7Cd_OR6Td61z-6" value="" style="endArrow=classic;html=1;rounded=0;exitX=0.5;exitY=1;exitDx=0;exitDy=0;" parent="1" source="VwRyxHcg7Cd_OR6Td61z-5" target="VwRyxHcg7Cd_OR6Td61z-7" edge="1">
          <mxGeometry width="50" height="50" relative="1" as="geometry">
            <mxPoint x="360" y="330" as="sourcePoint" />
            <mxPoint x="80" y="200" as="targetPoint" />
          </mxGeometry>
        </mxCell>
        <mxCell id="VwRyxHcg7Cd_OR6Td61z-7" value="C3K2&lt;div&gt;C3K=False&lt;/div&gt;" style="rounded=1;whiteSpace=wrap;html=1;fillColor=#d80073;fontColor=#ffffff;strokeColor=#A50040;direction=west;" parent="1" vertex="1">
          <mxGeometry x="40" y="200" width="80" height="40" as="geometry" />
        </mxCell>
        <mxCell id="VwRyxHcg7Cd_OR6Td61z-8" value="" style="endArrow=classic;html=1;rounded=0;exitX=0.5;exitY=0;exitDx=0;exitDy=0;" parent="1" source="VwRyxHcg7Cd_OR6Td61z-7" edge="1">
          <mxGeometry width="50" height="50" relative="1" as="geometry">
            <mxPoint x="360" y="390" as="sourcePoint" />
            <mxPoint x="80" y="280" as="targetPoint" />
          </mxGeometry>
        </mxCell>
        <mxCell id="VwRyxHcg7Cd_OR6Td61z-9" value="Conv" style="rounded=1;whiteSpace=wrap;html=1;fillColor=#fad9d5;strokeColor=#ae4132;" parent="1" vertex="1">
          <mxGeometry x="40" y="280" width="80" height="40" as="geometry" />
        </mxCell>
        <mxCell id="VwRyxHcg7Cd_OR6Td61z-10" value="" style="endArrow=classic;html=1;rounded=0;exitX=0.5;exitY=1;exitDx=0;exitDy=0;" parent="1" source="VwRyxHcg7Cd_OR6Td61z-9" edge="1">
          <mxGeometry width="50" height="50" relative="1" as="geometry">
            <mxPoint x="360" y="390" as="sourcePoint" />
            <mxPoint x="80" y="360" as="targetPoint" />
          </mxGeometry>
        </mxCell>
        <mxCell id="VwRyxHcg7Cd_OR6Td61z-11" value="C3K2&lt;div&gt;C3K=Flase&lt;/div&gt;" style="rounded=1;whiteSpace=wrap;html=1;fillColor=#d80073;strokeColor=#A50040;fontColor=#ffffff;" parent="1" vertex="1">
          <mxGeometry x="40" y="360" width="80" height="40" as="geometry" />
        </mxCell>
        <mxCell id="VwRyxHcg7Cd_OR6Td61z-12" value="" style="endArrow=classic;html=1;rounded=0;exitX=0.5;exitY=1;exitDx=0;exitDy=0;" parent="1" source="VwRyxHcg7Cd_OR6Td61z-11" target="VwRyxHcg7Cd_OR6Td61z-13" edge="1">
          <mxGeometry width="50" height="50" relative="1" as="geometry">
            <mxPoint x="360" y="490" as="sourcePoint" />
            <mxPoint x="80" y="440" as="targetPoint" />
          </mxGeometry>
        </mxCell>
        <mxCell id="VwRyxHcg7Cd_OR6Td61z-13" value="Conv" style="rounded=1;whiteSpace=wrap;html=1;fillColor=#fad9d5;strokeColor=#ae4132;" parent="1" vertex="1">
          <mxGeometry x="40" y="440" width="80" height="40" as="geometry" />
        </mxCell>
        <mxCell id="VwRyxHcg7Cd_OR6Td61z-14" value="" style="endArrow=classic;html=1;rounded=0;exitX=0.5;exitY=1;exitDx=0;exitDy=0;" parent="1" source="VwRyxHcg7Cd_OR6Td61z-13" target="VwRyxHcg7Cd_OR6Td61z-18" edge="1">
          <mxGeometry width="50" height="50" relative="1" as="geometry">
            <mxPoint x="360" y="490" as="sourcePoint" />
            <mxPoint x="80" y="520" as="targetPoint" />
          </mxGeometry>
        </mxCell>
        <mxCell id="VwRyxHcg7Cd_OR6Td61z-18" value="C3K2&lt;div&gt;C3K=True&lt;/div&gt;" style="rounded=1;whiteSpace=wrap;html=1;fillColor=#76608a;fontColor=#ffffff;strokeColor=#432D57;" parent="1" vertex="1">
          <mxGeometry x="40" y="520" width="80" height="40" as="geometry" />
        </mxCell>
        <mxCell id="VwRyxHcg7Cd_OR6Td61z-19" value="" style="endArrow=classic;html=1;rounded=0;exitX=0.5;exitY=1;exitDx=0;exitDy=0;" parent="1" source="VwRyxHcg7Cd_OR6Td61z-18" edge="1">
          <mxGeometry width="50" height="50" relative="1" as="geometry">
            <mxPoint x="360" y="690" as="sourcePoint" />
            <mxPoint x="80" y="600" as="targetPoint" />
          </mxGeometry>
        </mxCell>
        <mxCell id="VwRyxHcg7Cd_OR6Td61z-20" value="Conv" style="rounded=1;whiteSpace=wrap;html=1;fillColor=#f8cecc;strokeColor=#b85450;" parent="1" vertex="1">
          <mxGeometry x="40" y="600" width="80" height="40" as="geometry" />
        </mxCell>
        <mxCell id="VwRyxHcg7Cd_OR6Td61z-21" value="" style="endArrow=classic;html=1;rounded=0;exitX=0.5;exitY=1;exitDx=0;exitDy=0;" parent="1" source="VwRyxHcg7Cd_OR6Td61z-20" target="VwRyxHcg7Cd_OR6Td61z-22" edge="1">
          <mxGeometry width="50" height="50" relative="1" as="geometry">
            <mxPoint x="360" y="690" as="sourcePoint" />
            <mxPoint x="80" y="680" as="targetPoint" />
          </mxGeometry>
        </mxCell>
        <mxCell id="VwRyxHcg7Cd_OR6Td61z-22" value="C3K2&lt;div&gt;C3k=True&lt;/div&gt;" style="rounded=1;whiteSpace=wrap;html=1;fillColor=#76608a;fontColor=#ffffff;strokeColor=#432D57;" parent="1" vertex="1">
          <mxGeometry x="40" y="680" width="80" height="40" as="geometry" />
        </mxCell>
        <mxCell id="VwRyxHcg7Cd_OR6Td61z-23" value="" style="endArrow=classic;html=1;rounded=0;exitX=0.5;exitY=1;exitDx=0;exitDy=0;" parent="1" source="VwRyxHcg7Cd_OR6Td61z-22" edge="1">
          <mxGeometry width="50" height="50" relative="1" as="geometry">
            <mxPoint x="360" y="690" as="sourcePoint" />
            <mxPoint x="80" y="760" as="targetPoint" />
          </mxGeometry>
        </mxCell>
        <mxCell id="VwRyxHcg7Cd_OR6Td61z-24" value="SPPF" style="rounded=1;whiteSpace=wrap;html=1;fillColor=#a20025;strokeColor=#6F0000;fontColor=#ffffff;" parent="1" vertex="1">
          <mxGeometry x="40" y="760" width="80" height="40" as="geometry" />
        </mxCell>
        <mxCell id="VwRyxHcg7Cd_OR6Td61z-26" value="" style="endArrow=classic;html=1;rounded=0;exitX=0.5;exitY=1;exitDx=0;exitDy=0;" parent="1" source="VwRyxHcg7Cd_OR6Td61z-24" edge="1">
          <mxGeometry width="50" height="50" relative="1" as="geometry">
            <mxPoint x="360" y="690" as="sourcePoint" />
            <mxPoint x="80" y="840" as="targetPoint" />
          </mxGeometry>
        </mxCell>
        <mxCell id="VwRyxHcg7Cd_OR6Td61z-27" value="C2PSA" style="rounded=1;whiteSpace=wrap;html=1;fillColor=#a0522d;fontColor=#ffffff;strokeColor=#6D1F00;" parent="1" vertex="1">
          <mxGeometry x="40" y="840" width="80" height="40" as="geometry" />
        </mxCell>
        <mxCell id="VwRyxHcg7Cd_OR6Td61z-28" value="" style="endArrow=classic;html=1;rounded=0;exitX=1;exitY=0.5;exitDx=0;exitDy=0;" parent="1" source="VwRyxHcg7Cd_OR6Td61z-27" target="VwRyxHcg7Cd_OR6Td61z-29" edge="1">
          <mxGeometry width="50" height="50" relative="1" as="geometry">
            <mxPoint x="360" y="690" as="sourcePoint" />
            <mxPoint x="440" y="860" as="targetPoint" />
            <Array as="points">
              <mxPoint x="250" y="860" />
            </Array>
          </mxGeometry>
        </mxCell>
        <mxCell id="VwRyxHcg7Cd_OR6Td61z-29" value="Concat" style="rounded=1;whiteSpace=wrap;html=1;fillColor=#60a917;fontColor=#ffffff;strokeColor=#2D7600;" parent="1" vertex="1">
          <mxGeometry x="800" y="840" width="80" height="40" as="geometry" />
        </mxCell>
        <mxCell id="VwRyxHcg7Cd_OR6Td61z-30" value="" style="endArrow=classic;html=1;rounded=0;exitX=1;exitY=0.5;exitDx=0;exitDy=0;entryX=0;entryY=0.5;entryDx=0;entryDy=0;" parent="1" source="VwRyxHcg7Cd_OR6Td61z-29" target="VwRyxHcg7Cd_OR6Td61z-31" edge="1">
          <mxGeometry width="50" height="50" relative="1" as="geometry">
            <mxPoint x="360" y="790" as="sourcePoint" />
            <mxPoint x="520" y="860" as="targetPoint" />
          </mxGeometry>
        </mxCell>
        <mxCell id="VwRyxHcg7Cd_OR6Td61z-31" value="C3K2&lt;div&gt;C3k=True&lt;/div&gt;" style="rounded=1;whiteSpace=wrap;html=1;fillColor=#76608a;fontColor=#ffffff;strokeColor=#432D57;" parent="1" vertex="1">
          <mxGeometry x="910" y="840" width="80" height="40" as="geometry" />
        </mxCell>
        <mxCell id="VwRyxHcg7Cd_OR6Td61z-32" value="" style="endArrow=classic;html=1;rounded=0;" parent="1" target="VwRyxHcg7Cd_OR6Td61z-33" edge="1">
          <mxGeometry width="50" height="50" relative="1" as="geometry">
            <mxPoint x="200" y="860" as="sourcePoint" />
            <mxPoint x="200" y="650" as="targetPoint" />
          </mxGeometry>
        </mxCell>
        <mxCell id="VwRyxHcg7Cd_OR6Td61z-33" value="Upsample" style="rounded=1;whiteSpace=wrap;html=1;fillColor=#f0a30a;fontColor=#000000;strokeColor=#BD7000;" parent="1" vertex="1">
          <mxGeometry x="160" y="600" width="80" height="40" as="geometry" />
        </mxCell>
        <mxCell id="VwRyxHcg7Cd_OR6Td61z-34" value="" style="endArrow=classic;html=1;rounded=0;exitX=1;exitY=0.5;exitDx=0;exitDy=0;" parent="1" source="VwRyxHcg7Cd_OR6Td61z-18" edge="1">
          <mxGeometry width="50" height="50" relative="1" as="geometry">
            <mxPoint x="360" y="590" as="sourcePoint" />
            <mxPoint x="160" y="540" as="targetPoint" />
          </mxGeometry>
        </mxCell>
        <mxCell id="VwRyxHcg7Cd_OR6Td61z-35" value="Concat" style="rounded=1;whiteSpace=wrap;html=1;fillColor=#60a917;fontColor=#ffffff;strokeColor=#2D7600;" parent="1" vertex="1">
          <mxGeometry x="160" y="520" width="80" height="40" as="geometry" />
        </mxCell>
        <mxCell id="VwRyxHcg7Cd_OR6Td61z-36" value="" style="endArrow=classic;html=1;rounded=0;exitX=0.5;exitY=0;exitDx=0;exitDy=0;entryX=0.5;entryY=1;entryDx=0;entryDy=0;" parent="1" source="VwRyxHcg7Cd_OR6Td61z-33" target="VwRyxHcg7Cd_OR6Td61z-35" edge="1">
          <mxGeometry width="50" height="50" relative="1" as="geometry">
            <mxPoint x="360" y="690" as="sourcePoint" />
            <mxPoint x="410" y="640" as="targetPoint" />
          </mxGeometry>
        </mxCell>
        <mxCell id="VwRyxHcg7Cd_OR6Td61z-37" value="" style="endArrow=classic;html=1;rounded=0;exitX=1;exitY=0.5;exitDx=0;exitDy=0;" parent="1" source="VwRyxHcg7Cd_OR6Td61z-35" edge="1">
          <mxGeometry width="50" height="50" relative="1" as="geometry">
            <mxPoint x="360" y="690" as="sourcePoint" />
            <mxPoint x="320" y="540" as="targetPoint" />
          </mxGeometry>
        </mxCell>
        <mxCell id="VwRyxHcg7Cd_OR6Td61z-38" value="C3K2&lt;div&gt;C3K=True&lt;/div&gt;" style="rounded=1;whiteSpace=wrap;html=1;fillColor=#76608a;fontColor=#ffffff;strokeColor=#432D57;" parent="1" vertex="1">
          <mxGeometry x="280" y="520" width="80" height="40" as="geometry" />
        </mxCell>
        <mxCell id="VwRyxHcg7Cd_OR6Td61z-39" value="" style="endArrow=classic;html=1;rounded=0;exitX=0.5;exitY=0;exitDx=0;exitDy=0;entryX=0.5;entryY=1;entryDx=0;entryDy=0;" parent="1" source="VwRyxHcg7Cd_OR6Td61z-38" target="VwRyxHcg7Cd_OR6Td61z-40" edge="1">
          <mxGeometry width="50" height="50" relative="1" as="geometry">
            <mxPoint x="360" y="390" as="sourcePoint" />
            <mxPoint x="360" y="480" as="targetPoint" />
          </mxGeometry>
        </mxCell>
        <mxCell id="VwRyxHcg7Cd_OR6Td61z-40" value="Upsample" style="rounded=1;whiteSpace=wrap;html=1;fillColor=#f0a30a;fontColor=#000000;strokeColor=#BD7000;" parent="1" vertex="1">
          <mxGeometry x="280" y="440" width="80" height="40" as="geometry" />
        </mxCell>
        <mxCell id="VwRyxHcg7Cd_OR6Td61z-41" value="" style="endArrow=classic;html=1;rounded=0;exitX=1;exitY=0.5;exitDx=0;exitDy=0;" parent="1" source="VwRyxHcg7Cd_OR6Td61z-11" edge="1">
          <mxGeometry width="50" height="50" relative="1" as="geometry">
            <mxPoint x="360" y="390" as="sourcePoint" />
            <mxPoint x="280" y="380" as="targetPoint" />
          </mxGeometry>
        </mxCell>
        <mxCell id="VwRyxHcg7Cd_OR6Td61z-42" value="Concat" style="rounded=1;whiteSpace=wrap;html=1;fillColor=#60a917;fontColor=#ffffff;strokeColor=#2D7600;" parent="1" vertex="1">
          <mxGeometry x="280" y="360" width="80" height="40" as="geometry" />
        </mxCell>
        <mxCell id="VwRyxHcg7Cd_OR6Td61z-43" value="" style="endArrow=classic;html=1;rounded=0;exitX=0.5;exitY=0;exitDx=0;exitDy=0;entryX=0.5;entryY=1;entryDx=0;entryDy=0;" parent="1" source="VwRyxHcg7Cd_OR6Td61z-40" target="VwRyxHcg7Cd_OR6Td61z-42" edge="1">
          <mxGeometry width="50" height="50" relative="1" as="geometry">
            <mxPoint x="360" y="390" as="sourcePoint" />
            <mxPoint x="410" y="340" as="targetPoint" />
          </mxGeometry>
        </mxCell>
        <mxCell id="VwRyxHcg7Cd_OR6Td61z-44" value="" style="endArrow=classic;html=1;rounded=0;exitX=1;exitY=0.5;exitDx=0;exitDy=0;entryX=0;entryY=0.5;entryDx=0;entryDy=0;" parent="1" source="VwRyxHcg7Cd_OR6Td61z-38" target="VwRyxHcg7Cd_OR6Td61z-45" edge="1">
          <mxGeometry width="50" height="50" relative="1" as="geometry">
            <mxPoint x="360" y="490" as="sourcePoint" />
            <mxPoint x="400" y="540" as="targetPoint" />
          </mxGeometry>
        </mxCell>
        <mxCell id="VwRyxHcg7Cd_OR6Td61z-45" value="Concat" style="rounded=1;whiteSpace=wrap;html=1;fillColor=#60a917;fontColor=#ffffff;strokeColor=#2D7600;" parent="1" vertex="1">
          <mxGeometry x="520" y="520" width="80" height="40" as="geometry" />
        </mxCell>
        <mxCell id="VwRyxHcg7Cd_OR6Td61z-46" value="" style="endArrow=classic;html=1;rounded=0;exitX=1;exitY=0.5;exitDx=0;exitDy=0;entryX=0;entryY=0.5;entryDx=0;entryDy=0;" parent="1" source="VwRyxHcg7Cd_OR6Td61z-42" target="VwRyxHcg7Cd_OR6Td61z-47" edge="1">
          <mxGeometry width="50" height="50" relative="1" as="geometry">
            <mxPoint x="360" y="490" as="sourcePoint" />
            <mxPoint x="400" y="380" as="targetPoint" />
          </mxGeometry>
        </mxCell>
        <mxCell id="VwRyxHcg7Cd_OR6Td61z-47" value="C3K2&lt;div&gt;C3K=Flase&lt;/div&gt;" style="rounded=1;whiteSpace=wrap;html=1;fillColor=#d80073;strokeColor=#A50040;fontColor=#ffffff;" parent="1" vertex="1">
          <mxGeometry x="520" y="360" width="80" height="40" as="geometry" />
        </mxCell>
        <mxCell id="VwRyxHcg7Cd_OR6Td61z-49" value="Conv" style="rounded=1;whiteSpace=wrap;html=1;fillColor=#fad9d5;strokeColor=#ae4132;" parent="1" vertex="1">
          <mxGeometry x="520" y="440" width="80" height="40" as="geometry" />
        </mxCell>
        <mxCell id="VwRyxHcg7Cd_OR6Td61z-50" value="" style="endArrow=classic;html=1;rounded=0;exitX=0.5;exitY=1;exitDx=0;exitDy=0;entryX=0.5;entryY=0;entryDx=0;entryDy=0;" parent="1" source="VwRyxHcg7Cd_OR6Td61z-49" target="VwRyxHcg7Cd_OR6Td61z-45" edge="1">
          <mxGeometry width="50" height="50" relative="1" as="geometry">
            <mxPoint x="360" y="490" as="sourcePoint" />
            <mxPoint x="410" y="440" as="targetPoint" />
          </mxGeometry>
        </mxCell>
        <mxCell id="VwRyxHcg7Cd_OR6Td61z-52" value="" style="endArrow=classic;html=1;rounded=0;exitX=0.5;exitY=1;exitDx=0;exitDy=0;entryX=0.5;entryY=0;entryDx=0;entryDy=0;" parent="1" source="VwRyxHcg7Cd_OR6Td61z-47" target="VwRyxHcg7Cd_OR6Td61z-49" edge="1">
          <mxGeometry width="50" height="50" relative="1" as="geometry">
            <mxPoint x="380" y="630" as="sourcePoint" />
            <mxPoint x="480" y="440" as="targetPoint" />
          </mxGeometry>
        </mxCell>
        <mxCell id="VwRyxHcg7Cd_OR6Td61z-54" value="" style="endArrow=classic;html=1;rounded=0;exitX=1;exitY=0.5;exitDx=0;exitDy=0;entryX=0;entryY=0.5;entryDx=0;entryDy=0;" parent="1" source="VwRyxHcg7Cd_OR6Td61z-45" target="VwRyxHcg7Cd_OR6Td61z-61" edge="1">
          <mxGeometry width="50" height="50" relative="1" as="geometry">
            <mxPoint x="380" y="630" as="sourcePoint" />
            <mxPoint x="560" y="540" as="targetPoint" />
          </mxGeometry>
        </mxCell>
        <mxCell id="VwRyxHcg7Cd_OR6Td61z-56" value="" style="endArrow=classic;html=1;rounded=0;entryX=0.5;entryY=0;entryDx=0;entryDy=0;exitX=0.5;exitY=1;exitDx=0;exitDy=0;" parent="1" source="VwRyxHcg7Cd_OR6Td61z-61" target="VwRyxHcg7Cd_OR6Td61z-57" edge="1">
          <mxGeometry width="50" height="50" relative="1" as="geometry">
            <mxPoint x="710" y="570" as="sourcePoint" />
            <mxPoint x="600" y="640" as="targetPoint" />
          </mxGeometry>
        </mxCell>
        <mxCell id="VwRyxHcg7Cd_OR6Td61z-57" value="Conv" style="rounded=1;whiteSpace=wrap;html=1;fillColor=#fad9d5;strokeColor=#ae4132;" parent="1" vertex="1">
          <mxGeometry x="800" y="630" width="80" height="40" as="geometry" />
        </mxCell>
        <mxCell id="VwRyxHcg7Cd_OR6Td61z-58" value="" style="endArrow=classic;html=1;rounded=0;exitX=0.5;exitY=1;exitDx=0;exitDy=0;entryX=0.5;entryY=0;entryDx=0;entryDy=0;" parent="1" source="VwRyxHcg7Cd_OR6Td61z-57" target="VwRyxHcg7Cd_OR6Td61z-29" edge="1">
          <mxGeometry width="50" height="50" relative="1" as="geometry">
            <mxPoint x="380" y="730" as="sourcePoint" />
            <mxPoint x="430" y="680" as="targetPoint" />
            <Array as="points">
              <mxPoint x="840" y="790" />
            </Array>
          </mxGeometry>
        </mxCell>
        <mxCell id="VwRyxHcg7Cd_OR6Td61z-59" value="" style="endArrow=classic;html=1;rounded=0;exitX=1;exitY=0.5;exitDx=0;exitDy=0;" parent="1" source="VwRyxHcg7Cd_OR6Td61z-47" target="VwRyxHcg7Cd_OR6Td61z-60" edge="1">
          <mxGeometry width="50" height="50" relative="1" as="geometry">
            <mxPoint x="540" y="630" as="sourcePoint" />
            <mxPoint x="880" y="380" as="targetPoint" />
          </mxGeometry>
        </mxCell>
        <mxCell id="VwRyxHcg7Cd_OR6Td61z-60" value="Detect" style="rounded=0;whiteSpace=wrap;html=1;fillColor=#e51400;fontColor=#ffffff;strokeColor=#B20000;" parent="1" vertex="1">
          <mxGeometry x="1130" y="360" width="80" height="40" as="geometry" />
        </mxCell>
        <mxCell id="VwRyxHcg7Cd_OR6Td61z-61" value="C3K2&lt;div&gt;C3K=True&lt;/div&gt;" style="rounded=1;whiteSpace=wrap;html=1;fillColor=#76608a;fontColor=#ffffff;strokeColor=#432D57;" parent="1" vertex="1">
          <mxGeometry x="800" y="520" width="80" height="40" as="geometry" />
        </mxCell>
        <mxCell id="VwRyxHcg7Cd_OR6Td61z-62" value="" style="endArrow=classic;html=1;rounded=0;exitX=1;exitY=0.5;exitDx=0;exitDy=0;entryX=0;entryY=0.5;entryDx=0;entryDy=0;" parent="1" source="VwRyxHcg7Cd_OR6Td61z-61" target="VwRyxHcg7Cd_OR6Td61z-64" edge="1">
          <mxGeometry width="50" height="50" relative="1" as="geometry">
            <mxPoint x="540" y="630" as="sourcePoint" />
            <mxPoint x="880" y="540" as="targetPoint" />
          </mxGeometry>
        </mxCell>
        <mxCell id="VwRyxHcg7Cd_OR6Td61z-63" value="" style="endArrow=classic;html=1;rounded=0;exitX=1;exitY=0.5;exitDx=0;exitDy=0;entryX=0;entryY=0.75;entryDx=0;entryDy=0;" parent="1" source="VwRyxHcg7Cd_OR6Td61z-31" target="VwRyxHcg7Cd_OR6Td61z-65" edge="1">
          <mxGeometry width="50" height="50" relative="1" as="geometry">
            <mxPoint x="540" y="630" as="sourcePoint" />
            <mxPoint x="880" y="860" as="targetPoint" />
          </mxGeometry>
        </mxCell>
        <mxCell id="VwRyxHcg7Cd_OR6Td61z-64" value="Detect" style="rounded=0;whiteSpace=wrap;html=1;fillColor=#e51400;fontColor=#ffffff;strokeColor=#B20000;" parent="1" vertex="1">
          <mxGeometry x="1130" y="520" width="80" height="40" as="geometry" />
        </mxCell>
        <mxCell id="VwRyxHcg7Cd_OR6Td61z-65" value="Detect" style="rounded=0;whiteSpace=wrap;html=1;fillColor=#e51400;fontColor=#ffffff;strokeColor=#B20000;" parent="1" vertex="1">
          <mxGeometry x="1130" y="830" width="80" height="40" as="geometry" />
        </mxCell>
        <mxCell id="VwRyxHcg7Cd_OR6Td61z-66" value="Bottleneck" style="rounded=1;whiteSpace=wrap;html=1;fillColor=#008a00;fontColor=#ffffff;strokeColor=#005700;" parent="1" vertex="1">
          <mxGeometry x="180" y="113" width="80" height="40" as="geometry" />
        </mxCell>
        <mxCell id="VwRyxHcg7Cd_OR6Td61z-74" value="Conv" style="rounded=1;whiteSpace=wrap;html=1;fillColor=#f8cecc;strokeColor=#b85450;" parent="1" vertex="1">
          <mxGeometry x="180" width="80" height="40" as="geometry" />
        </mxCell>
        <mxCell id="VwRyxHcg7Cd_OR6Td61z-75" value="" style="endArrow=classic;html=1;rounded=0;exitX=0.5;exitY=1;exitDx=0;exitDy=0;" parent="1" source="VwRyxHcg7Cd_OR6Td61z-74" edge="1">
          <mxGeometry width="50" height="50" relative="1" as="geometry">
            <mxPoint x="540" y="343" as="sourcePoint" />
            <mxPoint x="220" y="53" as="targetPoint" />
          </mxGeometry>
        </mxCell>
        <mxCell id="VwRyxHcg7Cd_OR6Td61z-76" value="Split" style="rounded=1;whiteSpace=wrap;html=1;fillColor=#1ba1e2;fontColor=#ffffff;strokeColor=#006EAF;" parent="1" vertex="1">
          <mxGeometry x="180" y="53" width="80" height="40" as="geometry" />
        </mxCell>
        <mxCell id="VwRyxHcg7Cd_OR6Td61z-79" value="" style="endArrow=classic;html=1;rounded=0;exitX=0.5;exitY=1;exitDx=0;exitDy=0;" parent="1" source="VwRyxHcg7Cd_OR6Td61z-66" edge="1">
          <mxGeometry width="50" height="50" relative="1" as="geometry">
            <mxPoint x="540" y="343" as="sourcePoint" />
            <mxPoint x="220" y="173" as="targetPoint" />
          </mxGeometry>
        </mxCell>
        <mxCell id="VwRyxHcg7Cd_OR6Td61z-80" value="Bottleneck" style="rounded=1;whiteSpace=wrap;html=1;fillColor=#008a00;fontColor=#ffffff;strokeColor=#005700;" parent="1" vertex="1">
          <mxGeometry x="180" y="173" width="80" height="40" as="geometry" />
        </mxCell>
        <mxCell id="VwRyxHcg7Cd_OR6Td61z-83" value="" style="endArrow=classic;html=1;rounded=0;exitX=0.5;exitY=1;exitDx=0;exitDy=0;" parent="1" source="VwRyxHcg7Cd_OR6Td61z-76" edge="1">
          <mxGeometry width="50" height="50" relative="1" as="geometry">
            <mxPoint x="540" y="223" as="sourcePoint" />
            <mxPoint x="220" y="113" as="targetPoint" />
          </mxGeometry>
        </mxCell>
        <mxCell id="VwRyxHcg7Cd_OR6Td61z-84" value="Concat" style="rounded=1;whiteSpace=wrap;html=1;fillColor=#60a917;fontColor=#ffffff;strokeColor=#2D7600;" parent="1" vertex="1">
          <mxGeometry x="180" y="233" width="80" height="40" as="geometry" />
        </mxCell>
        <mxCell id="VwRyxHcg7Cd_OR6Td61z-85" value="" style="endArrow=classic;html=1;rounded=0;exitX=0.5;exitY=1;exitDx=0;exitDy=0;entryX=0.5;entryY=0;entryDx=0;entryDy=0;" parent="1" source="VwRyxHcg7Cd_OR6Td61z-80" target="VwRyxHcg7Cd_OR6Td61z-84" edge="1">
          <mxGeometry width="50" height="50" relative="1" as="geometry">
            <mxPoint x="540" y="343" as="sourcePoint" />
            <mxPoint x="590" y="293" as="targetPoint" />
          </mxGeometry>
        </mxCell>
        <mxCell id="VwRyxHcg7Cd_OR6Td61z-86" value="Conv" style="rounded=1;whiteSpace=wrap;html=1;fillColor=#fad9d5;strokeColor=#ae4132;" parent="1" vertex="1">
          <mxGeometry x="180" y="293" width="80" height="40" as="geometry" />
        </mxCell>
        <mxCell id="VwRyxHcg7Cd_OR6Td61z-87" value="" style="endArrow=classic;html=1;rounded=0;exitX=0.5;exitY=1;exitDx=0;exitDy=0;entryX=0.5;entryY=0;entryDx=0;entryDy=0;" parent="1" source="VwRyxHcg7Cd_OR6Td61z-84" target="VwRyxHcg7Cd_OR6Td61z-86" edge="1">
          <mxGeometry width="50" height="50" relative="1" as="geometry">
            <mxPoint x="540" y="343" as="sourcePoint" />
            <mxPoint x="590" y="293" as="targetPoint" />
          </mxGeometry>
        </mxCell>
        <mxCell id="VwRyxHcg7Cd_OR6Td61z-90" value="" style="endArrow=none;html=1;rounded=0;exitX=1;exitY=0.5;exitDx=0;exitDy=0;" parent="1" source="VwRyxHcg7Cd_OR6Td61z-76" edge="1">
          <mxGeometry width="50" height="50" relative="1" as="geometry">
            <mxPoint x="540" y="223" as="sourcePoint" />
            <mxPoint x="340" y="73" as="targetPoint" />
          </mxGeometry>
        </mxCell>
        <mxCell id="VwRyxHcg7Cd_OR6Td61z-91" value="" style="endArrow=none;html=1;rounded=0;" parent="1" edge="1">
          <mxGeometry width="50" height="50" relative="1" as="geometry">
            <mxPoint x="340" y="73" as="sourcePoint" />
            <mxPoint x="340" y="253" as="targetPoint" />
          </mxGeometry>
        </mxCell>
        <mxCell id="VwRyxHcg7Cd_OR6Td61z-92" value="" style="endArrow=classic;html=1;rounded=0;entryX=1;entryY=0.5;entryDx=0;entryDy=0;" parent="1" target="VwRyxHcg7Cd_OR6Td61z-84" edge="1">
          <mxGeometry width="50" height="50" relative="1" as="geometry">
            <mxPoint x="340" y="253" as="sourcePoint" />
            <mxPoint x="590" y="173" as="targetPoint" />
          </mxGeometry>
        </mxCell>
        <mxCell id="VwRyxHcg7Cd_OR6Td61z-93" value="" style="endArrow=none;html=1;rounded=0;" parent="1" edge="1">
          <mxGeometry width="50" height="50" relative="1" as="geometry">
            <mxPoint x="220" y="103" as="sourcePoint" />
            <mxPoint x="300" y="103" as="targetPoint" />
          </mxGeometry>
        </mxCell>
        <mxCell id="VwRyxHcg7Cd_OR6Td61z-94" value="" style="endArrow=none;html=1;rounded=0;" parent="1" edge="1">
          <mxGeometry width="50" height="50" relative="1" as="geometry">
            <mxPoint x="300" y="103" as="sourcePoint" />
            <mxPoint x="300" y="253" as="targetPoint" />
          </mxGeometry>
        </mxCell>
        <mxCell id="VwRyxHcg7Cd_OR6Td61z-179" value="&amp;nbsp; &amp;nbsp; C3K2&lt;div&gt;C3k=Flase&lt;/div&gt;" style="text;strokeColor=none;fillColor=none;align=left;verticalAlign=middle;spacingLeft=4;spacingRight=4;overflow=hidden;points=[[0,0.5],[1,0.5]];portConstraint=eastwest;rotatable=0;whiteSpace=wrap;html=1;" parent="1" vertex="1">
          <mxGeometry x="270" y="280" width="80" height="40" as="geometry" />
        </mxCell>
        <mxCell id="VwRyxHcg7Cd_OR6Td61z-420" value="Backbone" style="text;strokeColor=none;fillColor=none;align=left;verticalAlign=middle;spacingLeft=4;spacingRight=4;overflow=hidden;points=[[0,0.5],[1,0.5]];portConstraint=eastwest;rotatable=0;whiteSpace=wrap;html=1;" parent="1" vertex="1">
          <mxGeometry x="50" y="890" width="80" height="30" as="geometry" />
        </mxCell>
        <mxCell id="VwRyxHcg7Cd_OR6Td61z-421" value="Head" style="text;strokeColor=none;fillColor=none;align=left;verticalAlign=middle;spacingLeft=4;spacingRight=4;overflow=hidden;points=[[0,0.5],[1,0.5]];portConstraint=eastwest;rotatable=0;whiteSpace=wrap;html=1;" parent="1" vertex="1">
          <mxGeometry x="1130" y="880" width="80" height="30" as="geometry" />
        </mxCell>
        <mxCell id="VwRyxHcg7Cd_OR6Td61z-422" value="Neck" style="text;strokeColor=none;fillColor=none;align=left;verticalAlign=middle;spacingLeft=4;spacingRight=4;overflow=hidden;points=[[0,0.5],[1,0.5]];portConstraint=eastwest;rotatable=0;whiteSpace=wrap;html=1;" parent="1" vertex="1">
          <mxGeometry x="530" y="880" width="80" height="30" as="geometry" />
        </mxCell>
        <mxCell id="VwRyxHcg7Cd_OR6Td61z-431" value="" style="endArrow=none;html=1;rounded=0;" parent="1" edge="1">
          <mxGeometry width="50" height="50" relative="1" as="geometry">
            <mxPoint x="160" y="-10" as="sourcePoint" />
            <mxPoint x="360" y="-10" as="targetPoint" />
          </mxGeometry>
        </mxCell>
        <mxCell id="VwRyxHcg7Cd_OR6Td61z-432" value="" style="endArrow=none;html=1;rounded=0;" parent="1" edge="1">
          <mxGeometry width="50" height="50" relative="1" as="geometry">
            <mxPoint x="360" y="340" as="sourcePoint" />
            <mxPoint x="360" y="-10" as="targetPoint" />
          </mxGeometry>
        </mxCell>
        <mxCell id="VwRyxHcg7Cd_OR6Td61z-433" value="" style="endArrow=none;html=1;rounded=0;" parent="1" edge="1">
          <mxGeometry width="50" height="50" relative="1" as="geometry">
            <mxPoint x="160" y="340" as="sourcePoint" />
            <mxPoint x="160" y="-10" as="targetPoint" />
          </mxGeometry>
        </mxCell>
        <mxCell id="VwRyxHcg7Cd_OR6Td61z-434" value="" style="endArrow=none;html=1;rounded=0;" parent="1" edge="1">
          <mxGeometry width="50" height="50" relative="1" as="geometry">
            <mxPoint x="160" y="339.23" as="sourcePoint" />
            <mxPoint x="360" y="339.23" as="targetPoint" />
          </mxGeometry>
        </mxCell>
        <mxCell id="VwRyxHcg7Cd_OR6Td61z-435" value="" style="endArrow=none;dashed=1;html=1;rounded=0;" parent="1" edge="1">
          <mxGeometry width="50" height="50" relative="1" as="geometry">
            <mxPoint x="140" y="-10" as="sourcePoint" />
            <mxPoint x="20" y="-10" as="targetPoint" />
          </mxGeometry>
        </mxCell>
        <mxCell id="VwRyxHcg7Cd_OR6Td61z-436" value="" style="endArrow=none;dashed=1;html=1;rounded=0;" parent="1" edge="1">
          <mxGeometry width="50" height="50" relative="1" as="geometry">
            <mxPoint x="20" y="920" as="sourcePoint" />
            <mxPoint x="20" y="-10" as="targetPoint" />
          </mxGeometry>
        </mxCell>
        <mxCell id="VwRyxHcg7Cd_OR6Td61z-437" value="" style="endArrow=none;dashed=1;html=1;rounded=0;" parent="1" edge="1">
          <mxGeometry width="50" height="50" relative="1" as="geometry">
            <mxPoint x="134" y="920" as="sourcePoint" />
            <mxPoint x="20" y="920" as="targetPoint" />
          </mxGeometry>
        </mxCell>
        <mxCell id="VwRyxHcg7Cd_OR6Td61z-438" value="" style="endArrow=none;dashed=1;html=1;rounded=0;" parent="1" edge="1">
          <mxGeometry width="50" height="50" relative="1" as="geometry">
            <mxPoint x="134" y="920" as="sourcePoint" />
            <mxPoint x="140" y="-10" as="targetPoint" />
          </mxGeometry>
        </mxCell>
        <mxCell id="VwRyxHcg7Cd_OR6Td61z-439" value="" style="endArrow=none;html=1;rounded=0;" parent="1" edge="1">
          <mxGeometry width="50" height="50" relative="1" as="geometry">
            <mxPoint x="400" y="-10" as="sourcePoint" />
            <mxPoint x="600" y="-10" as="targetPoint" />
          </mxGeometry>
        </mxCell>
        <mxCell id="VwRyxHcg7Cd_OR6Td61z-440" value="" style="endArrow=none;html=1;rounded=0;" parent="1" edge="1">
          <mxGeometry width="50" height="50" relative="1" as="geometry">
            <mxPoint x="400" y="340" as="sourcePoint" />
            <mxPoint x="400" y="-10" as="targetPoint" />
          </mxGeometry>
        </mxCell>
        <mxCell id="VwRyxHcg7Cd_OR6Td61z-441" value="" style="endArrow=none;html=1;rounded=0;" parent="1" edge="1">
          <mxGeometry width="50" height="50" relative="1" as="geometry">
            <mxPoint x="600" y="340" as="sourcePoint" />
            <mxPoint x="600" y="-10" as="targetPoint" />
          </mxGeometry>
        </mxCell>
        <mxCell id="VwRyxHcg7Cd_OR6Td61z-442" value="" style="endArrow=none;html=1;rounded=0;" parent="1" edge="1">
          <mxGeometry width="50" height="50" relative="1" as="geometry">
            <mxPoint x="400" y="340" as="sourcePoint" />
            <mxPoint x="600" y="340" as="targetPoint" />
          </mxGeometry>
        </mxCell>
        <mxCell id="VwRyxHcg7Cd_OR6Td61z-443" value="Conv" style="rounded=1;whiteSpace=wrap;html=1;fillColor=#f8cecc;strokeColor=#b85450;" parent="1" vertex="1">
          <mxGeometry x="420" width="80" height="40" as="geometry" />
        </mxCell>
        <mxCell id="VwRyxHcg7Cd_OR6Td61z-444" value="Split" style="rounded=1;whiteSpace=wrap;html=1;fillColor=#1ba1e2;fontColor=#ffffff;strokeColor=#006EAF;" parent="1" vertex="1">
          <mxGeometry x="420" y="53" width="80" height="40" as="geometry" />
        </mxCell>
        <mxCell id="VwRyxHcg7Cd_OR6Td61z-445" value="" style="endArrow=classic;html=1;rounded=0;exitX=0.5;exitY=1;exitDx=0;exitDy=0;entryX=0.5;entryY=0;entryDx=0;entryDy=0;" parent="1" source="VwRyxHcg7Cd_OR6Td61z-443" target="VwRyxHcg7Cd_OR6Td61z-444" edge="1">
          <mxGeometry width="50" height="50" relative="1" as="geometry">
            <mxPoint x="520" y="200" as="sourcePoint" />
            <mxPoint x="570" y="150" as="targetPoint" />
          </mxGeometry>
        </mxCell>
        <mxCell id="VwRyxHcg7Cd_OR6Td61z-446" value="C3K&amp;nbsp; N=2" style="rounded=1;whiteSpace=wrap;html=1;fillColor=#647687;fontColor=#ffffff;strokeColor=#314354;" parent="1" vertex="1">
          <mxGeometry x="420" y="110" width="80" height="40" as="geometry" />
        </mxCell>
        <mxCell id="VwRyxHcg7Cd_OR6Td61z-447" value="" style="endArrow=classic;html=1;rounded=0;exitX=0.5;exitY=1;exitDx=0;exitDy=0;" parent="1" source="VwRyxHcg7Cd_OR6Td61z-444" edge="1">
          <mxGeometry width="50" height="50" relative="1" as="geometry">
            <mxPoint x="520" y="200" as="sourcePoint" />
            <mxPoint x="460" y="110" as="targetPoint" />
          </mxGeometry>
        </mxCell>
        <mxCell id="VwRyxHcg7Cd_OR6Td61z-448" value="C3K&amp;nbsp; N=2" style="rounded=1;whiteSpace=wrap;html=1;fillColor=#647687;fontColor=#ffffff;strokeColor=#314354;" parent="1" vertex="1">
          <mxGeometry x="420" y="170" width="80" height="40" as="geometry" />
        </mxCell>
        <mxCell id="VwRyxHcg7Cd_OR6Td61z-449" value="" style="endArrow=classic;html=1;rounded=0;exitX=0.5;exitY=1;exitDx=0;exitDy=0;entryX=0.5;entryY=0;entryDx=0;entryDy=0;" parent="1" source="VwRyxHcg7Cd_OR6Td61z-446" target="VwRyxHcg7Cd_OR6Td61z-448" edge="1">
          <mxGeometry width="50" height="50" relative="1" as="geometry">
            <mxPoint x="520" y="310" as="sourcePoint" />
            <mxPoint x="570" y="260" as="targetPoint" />
          </mxGeometry>
        </mxCell>
        <mxCell id="VwRyxHcg7Cd_OR6Td61z-450" value="Concat" style="rounded=1;whiteSpace=wrap;html=1;fillColor=#60a917;fontColor=#ffffff;strokeColor=#2D7600;" parent="1" vertex="1">
          <mxGeometry x="420" y="230" width="80" height="40" as="geometry" />
        </mxCell>
        <mxCell id="VwRyxHcg7Cd_OR6Td61z-451" value="" style="endArrow=classic;html=1;rounded=0;exitX=0.5;exitY=1;exitDx=0;exitDy=0;entryX=0.5;entryY=0;entryDx=0;entryDy=0;" parent="1" edge="1">
          <mxGeometry width="50" height="50" relative="1" as="geometry">
            <mxPoint x="460" y="210" as="sourcePoint" />
            <mxPoint x="460" y="230" as="targetPoint" />
          </mxGeometry>
        </mxCell>
        <mxCell id="VwRyxHcg7Cd_OR6Td61z-452" value="" style="endArrow=classic;html=1;rounded=0;" parent="1" edge="1">
          <mxGeometry width="50" height="50" relative="1" as="geometry">
            <mxPoint x="460" y="280" as="sourcePoint" />
            <mxPoint x="460" y="290" as="targetPoint" />
            <Array as="points">
              <mxPoint x="460" y="270" />
            </Array>
          </mxGeometry>
        </mxCell>
        <mxCell id="VwRyxHcg7Cd_OR6Td61z-453" value="Conv" style="rounded=1;whiteSpace=wrap;html=1;fillColor=#fad9d5;strokeColor=#ae4132;" parent="1" vertex="1">
          <mxGeometry x="420" y="293" width="80" height="40" as="geometry" />
        </mxCell>
        <mxCell id="VwRyxHcg7Cd_OR6Td61z-455" value="" style="endArrow=none;html=1;rounded=0;" parent="1" edge="1">
          <mxGeometry width="50" height="50" relative="1" as="geometry">
            <mxPoint x="500" y="70" as="sourcePoint" />
            <mxPoint x="580" y="70" as="targetPoint" />
          </mxGeometry>
        </mxCell>
        <mxCell id="VwRyxHcg7Cd_OR6Td61z-456" value="" style="endArrow=none;html=1;rounded=0;" parent="1" edge="1">
          <mxGeometry width="50" height="50" relative="1" as="geometry">
            <mxPoint x="580" y="250" as="sourcePoint" />
            <mxPoint x="580" y="70" as="targetPoint" />
          </mxGeometry>
        </mxCell>
        <mxCell id="VwRyxHcg7Cd_OR6Td61z-457" value="" style="endArrow=classic;html=1;rounded=0;entryX=1;entryY=0.5;entryDx=0;entryDy=0;" parent="1" target="VwRyxHcg7Cd_OR6Td61z-450" edge="1">
          <mxGeometry width="50" height="50" relative="1" as="geometry">
            <mxPoint x="580" y="250" as="sourcePoint" />
            <mxPoint x="570" y="260" as="targetPoint" />
          </mxGeometry>
        </mxCell>
        <mxCell id="VwRyxHcg7Cd_OR6Td61z-459" value="" style="endArrow=none;html=1;rounded=0;" parent="1" edge="1">
          <mxGeometry width="50" height="50" relative="1" as="geometry">
            <mxPoint x="460" y="100" as="sourcePoint" />
            <mxPoint x="540" y="100" as="targetPoint" />
          </mxGeometry>
        </mxCell>
        <mxCell id="VwRyxHcg7Cd_OR6Td61z-460" value="" style="endArrow=none;html=1;rounded=0;" parent="1" edge="1">
          <mxGeometry width="50" height="50" relative="1" as="geometry">
            <mxPoint x="540" y="250" as="sourcePoint" />
            <mxPoint x="540" y="100" as="targetPoint" />
          </mxGeometry>
        </mxCell>
        <mxCell id="VwRyxHcg7Cd_OR6Td61z-462" value="&amp;nbsp; &amp;nbsp; C3K2&lt;div&gt;C3k=True&lt;/div&gt;" style="text;strokeColor=none;fillColor=none;align=left;verticalAlign=middle;spacingLeft=4;spacingRight=4;overflow=hidden;points=[[0,0.5],[1,0.5]];portConstraint=eastwest;rotatable=0;whiteSpace=wrap;html=1;" parent="1" vertex="1">
          <mxGeometry x="510" y="280" width="80" height="40" as="geometry" />
        </mxCell>
        <mxCell id="VwRyxHcg7Cd_OR6Td61z-463" value="" style="endArrow=none;dashed=1;html=1;rounded=0;" parent="1" edge="1">
          <mxGeometry width="50" height="50" relative="1" as="geometry">
            <mxPoint x="150" y="920" as="sourcePoint" />
            <mxPoint x="150" y="350" as="targetPoint" />
          </mxGeometry>
        </mxCell>
        <mxCell id="VwRyxHcg7Cd_OR6Td61z-464" value="" style="endArrow=none;dashed=1;html=1;rounded=0;" parent="1" edge="1">
          <mxGeometry width="50" height="50" relative="1" as="geometry">
            <mxPoint x="150" y="920" as="sourcePoint" />
            <mxPoint x="1000" y="920" as="targetPoint" />
          </mxGeometry>
        </mxCell>
        <mxCell id="VwRyxHcg7Cd_OR6Td61z-465" value="" style="endArrow=none;dashed=1;html=1;rounded=0;" parent="1" edge="1">
          <mxGeometry width="50" height="50" relative="1" as="geometry">
            <mxPoint x="150" y="350" as="sourcePoint" />
            <mxPoint x="1000" y="350" as="targetPoint" />
          </mxGeometry>
        </mxCell>
        <mxCell id="VwRyxHcg7Cd_OR6Td61z-466" value="" style="endArrow=none;dashed=1;html=1;rounded=0;" parent="1" edge="1">
          <mxGeometry width="50" height="50" relative="1" as="geometry">
            <mxPoint x="1000" y="920" as="sourcePoint" />
            <mxPoint x="1000" y="350" as="targetPoint" />
          </mxGeometry>
        </mxCell>
        <mxCell id="VwRyxHcg7Cd_OR6Td61z-467" value="" style="endArrow=none;dashed=1;html=1;rounded=0;" parent="1" edge="1">
          <mxGeometry width="50" height="50" relative="1" as="geometry">
            <mxPoint x="1080" y="920" as="sourcePoint" />
            <mxPoint x="1080" y="350" as="targetPoint" />
          </mxGeometry>
        </mxCell>
        <mxCell id="VwRyxHcg7Cd_OR6Td61z-469" value="" style="endArrow=none;dashed=1;html=1;rounded=0;" parent="1" edge="1">
          <mxGeometry width="50" height="50" relative="1" as="geometry">
            <mxPoint x="1240" y="920" as="sourcePoint" />
            <mxPoint x="1240" y="350" as="targetPoint" />
          </mxGeometry>
        </mxCell>
        <mxCell id="VwRyxHcg7Cd_OR6Td61z-470" value="" style="endArrow=none;dashed=1;html=1;rounded=0;" parent="1" edge="1">
          <mxGeometry width="50" height="50" relative="1" as="geometry">
            <mxPoint x="1080" y="920" as="sourcePoint" />
            <mxPoint x="1240" y="920" as="targetPoint" />
          </mxGeometry>
        </mxCell>
        <mxCell id="VwRyxHcg7Cd_OR6Td61z-471" value="" style="endArrow=none;html=1;rounded=0;" parent="1" edge="1">
          <mxGeometry width="50" height="50" relative="1" as="geometry">
            <mxPoint x="620" y="120" as="sourcePoint" />
            <mxPoint x="620" y="-10" as="targetPoint" />
          </mxGeometry>
        </mxCell>
        <mxCell id="VwRyxHcg7Cd_OR6Td61z-472" value="" style="endArrow=none;html=1;rounded=0;" parent="1" edge="1">
          <mxGeometry width="50" height="50" relative="1" as="geometry">
            <mxPoint x="1140" y="-10" as="sourcePoint" />
            <mxPoint x="620" y="-10" as="targetPoint" />
          </mxGeometry>
        </mxCell>
        <mxCell id="VwRyxHcg7Cd_OR6Td61z-473" value="" style="endArrow=none;html=1;rounded=0;" parent="1" edge="1">
          <mxGeometry width="50" height="50" relative="1" as="geometry">
            <mxPoint x="1140" y="120" as="sourcePoint" />
            <mxPoint x="620" y="120" as="targetPoint" />
          </mxGeometry>
        </mxCell>
        <mxCell id="VwRyxHcg7Cd_OR6Td61z-475" value="Conv" style="rounded=1;whiteSpace=wrap;html=1;fillColor=#f8cecc;strokeColor=#b85450;rotation=0;direction=east;" parent="1" vertex="1">
          <mxGeometry x="630" y="20" width="80" height="40" as="geometry" />
        </mxCell>
        <mxCell id="VwRyxHcg7Cd_OR6Td61z-477" value="" style="endArrow=classic;html=1;rounded=0;exitX=1;exitY=0.5;exitDx=0;exitDy=0;" parent="1" source="VwRyxHcg7Cd_OR6Td61z-475" edge="1">
          <mxGeometry width="50" height="50" relative="1" as="geometry">
            <mxPoint x="670" y="70" as="sourcePoint" />
            <mxPoint x="730" y="40" as="targetPoint" />
          </mxGeometry>
        </mxCell>
        <mxCell id="VwRyxHcg7Cd_OR6Td61z-478" value="Bottleneck" style="rounded=1;whiteSpace=wrap;html=1;fillColor=#008a00;fontColor=#ffffff;strokeColor=#005700;direction=west;" parent="1" vertex="1">
          <mxGeometry x="730" y="20" width="80" height="40" as="geometry" />
        </mxCell>
        <mxCell id="VwRyxHcg7Cd_OR6Td61z-479" value="" style="endArrow=classic;html=1;rounded=0;exitX=0;exitY=0.5;exitDx=0;exitDy=0;" parent="1" source="VwRyxHcg7Cd_OR6Td61z-478" edge="1">
          <mxGeometry width="50" height="50" relative="1" as="geometry">
            <mxPoint x="840" y="30" as="sourcePoint" />
            <mxPoint x="830" y="40" as="targetPoint" />
          </mxGeometry>
        </mxCell>
        <mxCell id="VwRyxHcg7Cd_OR6Td61z-480" value="Bottleneck" style="rounded=1;whiteSpace=wrap;html=1;fillColor=#008a00;fontColor=#ffffff;strokeColor=#005700;direction=west;" parent="1" vertex="1">
          <mxGeometry x="830" y="20" width="80" height="40" as="geometry" />
        </mxCell>
        <mxCell id="VwRyxHcg7Cd_OR6Td61z-482" value="Concat" style="rounded=1;whiteSpace=wrap;html=1;fillColor=#60a917;fontColor=#ffffff;strokeColor=#2D7600;" parent="1" vertex="1">
          <mxGeometry x="930" y="20" width="80" height="40" as="geometry" />
        </mxCell>
        <mxCell id="VwRyxHcg7Cd_OR6Td61z-483" value="" style="endArrow=classic;html=1;rounded=0;exitX=0;exitY=0.5;exitDx=0;exitDy=0;" parent="1" source="VwRyxHcg7Cd_OR6Td61z-480" edge="1">
          <mxGeometry width="50" height="50" relative="1" as="geometry">
            <mxPoint x="940" y="40" as="sourcePoint" />
            <mxPoint x="930" y="40" as="targetPoint" />
          </mxGeometry>
        </mxCell>
        <mxCell id="VwRyxHcg7Cd_OR6Td61z-487" value="Conv" style="rounded=1;whiteSpace=wrap;html=1;fillColor=#f8cecc;strokeColor=#b85450;" parent="1" vertex="1">
          <mxGeometry x="1030" y="20" width="80" height="40" as="geometry" />
        </mxCell>
        <mxCell id="VwRyxHcg7Cd_OR6Td61z-488" value="" style="endArrow=classic;html=1;rounded=0;exitX=1;exitY=0.5;exitDx=0;exitDy=0;" parent="1" source="VwRyxHcg7Cd_OR6Td61z-482" edge="1">
          <mxGeometry width="50" height="50" relative="1" as="geometry">
            <mxPoint x="1020" y="40" as="sourcePoint" />
            <mxPoint x="1030" y="40" as="targetPoint" />
          </mxGeometry>
        </mxCell>
        <mxCell id="VwRyxHcg7Cd_OR6Td61z-489" value="" style="endArrow=none;html=1;rounded=0;" parent="1" edge="1">
          <mxGeometry width="50" height="50" relative="1" as="geometry">
            <mxPoint x="1140" y="120" as="sourcePoint" />
            <mxPoint x="1140" y="-10" as="targetPoint" />
          </mxGeometry>
        </mxCell>
        <mxCell id="VwRyxHcg7Cd_OR6Td61z-490" value="" style="endArrow=none;html=1;rounded=0;exitX=0.5;exitY=1;exitDx=0;exitDy=0;" parent="1" source="VwRyxHcg7Cd_OR6Td61z-475" edge="1">
          <mxGeometry width="50" height="50" relative="1" as="geometry">
            <mxPoint x="870" y="110" as="sourcePoint" />
            <mxPoint x="670" y="90" as="targetPoint" />
          </mxGeometry>
        </mxCell>
        <mxCell id="VwRyxHcg7Cd_OR6Td61z-491" value="" style="endArrow=classic;html=1;rounded=0;" parent="1" edge="1">
          <mxGeometry width="50" height="50" relative="1" as="geometry">
            <mxPoint x="670" y="90" as="sourcePoint" />
            <mxPoint x="770" y="90" as="targetPoint" />
          </mxGeometry>
        </mxCell>
        <mxCell id="VwRyxHcg7Cd_OR6Td61z-492" value="Conv" style="rounded=1;whiteSpace=wrap;html=1;fillColor=#f8cecc;strokeColor=#b85450;rotation=0;direction=east;" parent="1" vertex="1">
          <mxGeometry x="770" y="73" width="80" height="40" as="geometry" />
        </mxCell>
        <mxCell id="VwRyxHcg7Cd_OR6Td61z-493" value="" style="endArrow=none;html=1;rounded=0;" parent="1" edge="1">
          <mxGeometry width="50" height="50" relative="1" as="geometry">
            <mxPoint x="850" y="90" as="sourcePoint" />
            <mxPoint x="920" y="90" as="targetPoint" />
          </mxGeometry>
        </mxCell>
        <mxCell id="VwRyxHcg7Cd_OR6Td61z-495" value="" style="endArrow=none;html=1;rounded=0;" parent="1" edge="1">
          <mxGeometry width="50" height="50" relative="1" as="geometry">
            <mxPoint x="920" y="90" as="sourcePoint" />
            <mxPoint x="920" y="40" as="targetPoint" />
          </mxGeometry>
        </mxCell>
        <mxCell id="VwRyxHcg7Cd_OR6Td61z-496" value="" style="endArrow=none;html=1;rounded=0;exitX=0.5;exitY=1;exitDx=0;exitDy=0;" parent="1" source="VwRyxHcg7Cd_OR6Td61z-478" edge="1">
          <mxGeometry width="50" height="50" relative="1" as="geometry">
            <mxPoint x="870" y="110" as="sourcePoint" />
            <mxPoint x="770" y="10" as="targetPoint" />
          </mxGeometry>
        </mxCell>
        <mxCell id="VwRyxHcg7Cd_OR6Td61z-498" value="" style="endArrow=none;html=1;rounded=0;" parent="1" edge="1">
          <mxGeometry width="50" height="50" relative="1" as="geometry">
            <mxPoint x="770" y="10" as="sourcePoint" />
            <mxPoint x="870" y="10" as="targetPoint" />
          </mxGeometry>
        </mxCell>
        <mxCell id="VwRyxHcg7Cd_OR6Td61z-499" value="" style="endArrow=none;html=1;rounded=0;" parent="1" edge="1">
          <mxGeometry width="50" height="50" relative="1" as="geometry">
            <mxPoint x="870" y="20" as="sourcePoint" />
            <mxPoint x="870" y="10" as="targetPoint" />
          </mxGeometry>
        </mxCell>
        <mxCell id="VwRyxHcg7Cd_OR6Td61z-500" value="N" style="text;strokeColor=none;fillColor=none;align=left;verticalAlign=middle;spacingLeft=4;spacingRight=4;overflow=hidden;points=[[0,0.5],[1,0.5]];portConstraint=eastwest;rotatable=0;whiteSpace=wrap;html=1;" parent="1" vertex="1">
          <mxGeometry x="810" y="5" width="30" height="30" as="geometry" />
        </mxCell>
        <mxCell id="VwRyxHcg7Cd_OR6Td61z-501" value="C3K" style="text;strokeColor=none;fillColor=none;align=left;verticalAlign=middle;spacingLeft=4;spacingRight=4;overflow=hidden;points=[[0,0.5],[1,0.5]];portConstraint=eastwest;rotatable=0;whiteSpace=wrap;html=1;" parent="1" vertex="1">
          <mxGeometry x="960" y="80" width="80" height="30" as="geometry" />
        </mxCell>
        <mxCell id="VwRyxHcg7Cd_OR6Td61z-502" value="" style="endArrow=classic;html=1;rounded=0;exitX=1;exitY=0.5;exitDx=0;exitDy=0;" parent="1" source="VwRyxHcg7Cd_OR6Td61z-487" edge="1">
          <mxGeometry width="50" height="50" relative="1" as="geometry">
            <mxPoint x="870" y="110" as="sourcePoint" />
            <mxPoint x="1130" y="40" as="targetPoint" />
          </mxGeometry>
        </mxCell>
        <mxCell id="VwRyxHcg7Cd_OR6Td61z-503" value="Conv" style="rounded=1;whiteSpace=wrap;html=1;fillColor=#f8cecc;strokeColor=#b85450;rotation=0;direction=east;" parent="1" vertex="1">
          <mxGeometry x="630" y="253.00000000000003" width="80" height="40" as="geometry" />
        </mxCell>
        <mxCell id="VwRyxHcg7Cd_OR6Td61z-507" value="Maxpool2d" style="rounded=1;whiteSpace=wrap;html=1;fillColor=#ffcc99;strokeColor=#36393d;" parent="1" vertex="1">
          <mxGeometry x="730" y="253.00000000000003" width="80" height="40" as="geometry" />
        </mxCell>
        <mxCell id="VwRyxHcg7Cd_OR6Td61z-508" value="" style="endArrow=classic;html=1;rounded=0;exitX=1;exitY=0.5;exitDx=0;exitDy=0;" parent="1" source="VwRyxHcg7Cd_OR6Td61z-503" edge="1">
          <mxGeometry width="50" height="50" relative="1" as="geometry">
            <mxPoint x="910" y="310" as="sourcePoint" />
            <mxPoint x="730" y="273" as="targetPoint" />
          </mxGeometry>
        </mxCell>
        <mxCell id="VwRyxHcg7Cd_OR6Td61z-509" value="" style="endArrow=classic;html=1;rounded=0;exitX=1;exitY=0.5;exitDx=0;exitDy=0;" parent="1" source="VwRyxHcg7Cd_OR6Td61z-507" edge="1">
          <mxGeometry width="50" height="50" relative="1" as="geometry">
            <mxPoint x="910" y="310" as="sourcePoint" />
            <mxPoint x="830" y="273" as="targetPoint" />
          </mxGeometry>
        </mxCell>
        <mxCell id="VwRyxHcg7Cd_OR6Td61z-510" value="Maxpool2d" style="rounded=1;whiteSpace=wrap;html=1;fillColor=#ffcc99;strokeColor=#36393d;shadow=0;glass=0;" parent="1" vertex="1">
          <mxGeometry x="830" y="253.00000000000003" width="80" height="40" as="geometry" />
        </mxCell>
        <mxCell id="VwRyxHcg7Cd_OR6Td61z-511" value="Maxpool2d" style="rounded=1;whiteSpace=wrap;html=1;fillColor=#ffcc99;strokeColor=#36393d;" parent="1" vertex="1">
          <mxGeometry x="930" y="253.00000000000003" width="80" height="40" as="geometry" />
        </mxCell>
        <mxCell id="VwRyxHcg7Cd_OR6Td61z-513" value="Concat" style="rounded=1;whiteSpace=wrap;html=1;fillColor=#60a917;fontColor=#ffffff;strokeColor=#2D7600;" parent="1" vertex="1">
          <mxGeometry x="1030" y="253.00000000000003" width="80" height="40" as="geometry" />
        </mxCell>
        <mxCell id="VwRyxHcg7Cd_OR6Td61z-515" value="" style="endArrow=classic;html=1;rounded=0;exitX=1;exitY=0.5;exitDx=0;exitDy=0;" parent="1" source="VwRyxHcg7Cd_OR6Td61z-510" edge="1">
          <mxGeometry width="50" height="50" relative="1" as="geometry">
            <mxPoint x="920" y="270" as="sourcePoint" />
            <mxPoint x="930" y="273" as="targetPoint" />
          </mxGeometry>
        </mxCell>
        <mxCell id="VwRyxHcg7Cd_OR6Td61z-516" value="" style="endArrow=classic;html=1;rounded=0;exitX=1;exitY=0.5;exitDx=0;exitDy=0;entryX=0;entryY=0.5;entryDx=0;entryDy=0;" parent="1" source="VwRyxHcg7Cd_OR6Td61z-511" target="VwRyxHcg7Cd_OR6Td61z-513" edge="1">
          <mxGeometry width="50" height="50" relative="1" as="geometry">
            <mxPoint x="1020" y="280" as="sourcePoint" />
            <mxPoint x="1040" y="280" as="targetPoint" />
          </mxGeometry>
        </mxCell>
        <mxCell id="VwRyxHcg7Cd_OR6Td61z-517" value="" style="endArrow=classic;html=1;rounded=0;exitX=1;exitY=0.5;exitDx=0;exitDy=0;" parent="1" source="VwRyxHcg7Cd_OR6Td61z-513" edge="1">
          <mxGeometry width="50" height="50" relative="1" as="geometry">
            <mxPoint x="990" y="430" as="sourcePoint" />
            <mxPoint x="1130" y="273" as="targetPoint" />
          </mxGeometry>
        </mxCell>
        <mxCell id="VwRyxHcg7Cd_OR6Td61z-518" value="Conv" style="rounded=1;whiteSpace=wrap;html=1;fillColor=#f8cecc;strokeColor=#b85450;rotation=0;direction=east;" parent="1" vertex="1">
          <mxGeometry x="1130" y="253.00000000000003" width="80" height="40" as="geometry" />
        </mxCell>
        <mxCell id="VwRyxHcg7Cd_OR6Td61z-519" value="" style="endArrow=none;html=1;rounded=0;exitX=0.5;exitY=1;exitDx=0;exitDy=0;" parent="1" source="VwRyxHcg7Cd_OR6Td61z-503" edge="1">
          <mxGeometry width="50" height="50" relative="1" as="geometry">
            <mxPoint x="990" y="430" as="sourcePoint" />
            <mxPoint x="670" y="330" as="targetPoint" />
          </mxGeometry>
        </mxCell>
        <mxCell id="VwRyxHcg7Cd_OR6Td61z-520" value="" style="endArrow=none;html=1;rounded=0;" parent="1" edge="1">
          <mxGeometry width="50" height="50" relative="1" as="geometry">
            <mxPoint x="670" y="330" as="sourcePoint" />
            <mxPoint x="1080" y="330" as="targetPoint" />
          </mxGeometry>
        </mxCell>
        <mxCell id="VwRyxHcg7Cd_OR6Td61z-521" value="" style="endArrow=classic;html=1;rounded=0;entryX=0.635;entryY=0.943;entryDx=0;entryDy=0;entryPerimeter=0;" parent="1" target="VwRyxHcg7Cd_OR6Td61z-513" edge="1">
          <mxGeometry width="50" height="50" relative="1" as="geometry">
            <mxPoint x="1081" y="330" as="sourcePoint" />
            <mxPoint x="1040" y="380" as="targetPoint" />
          </mxGeometry>
        </mxCell>
        <mxCell id="VwRyxHcg7Cd_OR6Td61z-523" value="" style="endArrow=none;html=1;rounded=0;" parent="1" edge="1">
          <mxGeometry width="50" height="50" relative="1" as="geometry">
            <mxPoint x="820" y="320" as="sourcePoint" />
            <mxPoint x="820" y="273" as="targetPoint" />
          </mxGeometry>
        </mxCell>
        <mxCell id="VwRyxHcg7Cd_OR6Td61z-524" value="" style="endArrow=none;html=1;rounded=0;" parent="1" edge="1">
          <mxGeometry width="50" height="50" relative="1" as="geometry">
            <mxPoint x="820" y="320" as="sourcePoint" />
            <mxPoint x="1080" y="320" as="targetPoint" />
          </mxGeometry>
        </mxCell>
        <mxCell id="VwRyxHcg7Cd_OR6Td61z-525" value="" style="endArrow=none;html=1;rounded=0;" parent="1" edge="1">
          <mxGeometry width="50" height="50" relative="1" as="geometry">
            <mxPoint x="920" y="310" as="sourcePoint" />
            <mxPoint x="919.71" y="273" as="targetPoint" />
          </mxGeometry>
        </mxCell>
        <mxCell id="VwRyxHcg7Cd_OR6Td61z-526" value="" style="endArrow=none;html=1;rounded=0;" parent="1" edge="1">
          <mxGeometry width="50" height="50" relative="1" as="geometry">
            <mxPoint x="920" y="310" as="sourcePoint" />
            <mxPoint x="1080" y="310" as="targetPoint" />
          </mxGeometry>
        </mxCell>
        <mxCell id="VwRyxHcg7Cd_OR6Td61z-527" value="" style="endArrow=none;html=1;rounded=0;" parent="1" edge="1">
          <mxGeometry width="50" height="50" relative="1" as="geometry">
            <mxPoint x="620" y="340" as="sourcePoint" />
            <mxPoint x="620" y="240.00000000000003" as="targetPoint" />
          </mxGeometry>
        </mxCell>
        <mxCell id="VwRyxHcg7Cd_OR6Td61z-528" value="" style="endArrow=none;html=1;rounded=0;" parent="1" edge="1">
          <mxGeometry width="50" height="50" relative="1" as="geometry">
            <mxPoint x="620" y="340" as="sourcePoint" />
            <mxPoint x="1240" y="340" as="targetPoint" />
          </mxGeometry>
        </mxCell>
        <mxCell id="VwRyxHcg7Cd_OR6Td61z-529" value="" style="endArrow=none;html=1;rounded=0;" parent="1" edge="1">
          <mxGeometry width="50" height="50" relative="1" as="geometry">
            <mxPoint x="1240" y="240.00000000000003" as="sourcePoint" />
            <mxPoint x="620" y="240.00000000000003" as="targetPoint" />
          </mxGeometry>
        </mxCell>
        <mxCell id="VwRyxHcg7Cd_OR6Td61z-530" value="" style="endArrow=none;html=1;rounded=0;" parent="1" edge="1">
          <mxGeometry width="50" height="50" relative="1" as="geometry">
            <mxPoint x="1240" y="340" as="sourcePoint" />
            <mxPoint x="1240" y="240.00000000000003" as="targetPoint" />
          </mxGeometry>
        </mxCell>
        <mxCell id="VwRyxHcg7Cd_OR6Td61z-531" value="SPPF" style="text;strokeColor=none;fillColor=none;align=left;verticalAlign=middle;spacingLeft=4;spacingRight=4;overflow=hidden;points=[[0,0.5],[1,0.5]];portConstraint=eastwest;rotatable=0;whiteSpace=wrap;html=1;" parent="1" vertex="1">
          <mxGeometry x="1120" y="303" width="80" height="30" as="geometry" />
        </mxCell>
        <mxCell id="VwRyxHcg7Cd_OR6Td61z-532" value="" style="endArrow=none;dashed=1;html=1;rounded=0;" parent="1" edge="1">
          <mxGeometry width="50" height="50" relative="1" as="geometry">
            <mxPoint x="1080" y="350" as="sourcePoint" />
            <mxPoint x="1240" y="350" as="targetPoint" />
            <Array as="points">
              <mxPoint x="1170" y="350" />
            </Array>
          </mxGeometry>
        </mxCell>
        <mxCell id="VwRyxHcg7Cd_OR6Td61z-534" value="Conv" style="rounded=1;whiteSpace=wrap;html=1;fillColor=#fad9d5;strokeColor=#ae4132;" parent="1" vertex="1">
          <mxGeometry x="630" y="140" width="80" height="40" as="geometry" />
        </mxCell>
        <mxCell id="VwRyxHcg7Cd_OR6Td61z-536" value="" style="endArrow=classic;html=1;rounded=0;exitX=1;exitY=0.5;exitDx=0;exitDy=0;entryX=0;entryY=0.5;entryDx=0;entryDy=0;" parent="1" source="VwRyxHcg7Cd_OR6Td61z-534" target="VwRyxHcg7Cd_OR6Td61z-537" edge="1">
          <mxGeometry width="50" height="50" relative="1" as="geometry">
            <mxPoint x="510" y="330" as="sourcePoint" />
            <mxPoint x="730" y="173" as="targetPoint" />
          </mxGeometry>
        </mxCell>
        <mxCell id="VwRyxHcg7Cd_OR6Td61z-537" value="PASBlock" style="rounded=1;whiteSpace=wrap;html=1;fillColor=#d0cee2;strokeColor=#56517e;" parent="1" vertex="1">
          <mxGeometry x="730" y="140" width="80" height="40" as="geometry" />
        </mxCell>
        <mxCell id="VwRyxHcg7Cd_OR6Td61z-538" value="" style="endArrow=classic;html=1;rounded=0;exitX=1;exitY=0.5;exitDx=0;exitDy=0;entryX=0;entryY=0.5;entryDx=0;entryDy=0;" parent="1" source="VwRyxHcg7Cd_OR6Td61z-537" target="VwRyxHcg7Cd_OR6Td61z-539" edge="1">
          <mxGeometry width="50" height="50" relative="1" as="geometry">
            <mxPoint x="820" y="170" as="sourcePoint" />
            <mxPoint x="830" y="173" as="targetPoint" />
          </mxGeometry>
        </mxCell>
        <mxCell id="VwRyxHcg7Cd_OR6Td61z-539" value="PASBlock" style="rounded=1;whiteSpace=wrap;html=1;fillColor=#d0cee2;strokeColor=#56517e;" parent="1" vertex="1">
          <mxGeometry x="830" y="140" width="80" height="40" as="geometry" />
        </mxCell>
        <mxCell id="VwRyxHcg7Cd_OR6Td61z-540" value="Concat" style="rounded=1;whiteSpace=wrap;html=1;fillColor=#60a917;fontColor=#ffffff;strokeColor=#2D7600;" parent="1" vertex="1">
          <mxGeometry x="930" y="140" width="80" height="40" as="geometry" />
        </mxCell>
        <mxCell id="VwRyxHcg7Cd_OR6Td61z-541" value="Conv" style="rounded=1;whiteSpace=wrap;html=1;fillColor=#fad9d5;strokeColor=#ae4132;" parent="1" vertex="1">
          <mxGeometry x="1030" y="140" width="80" height="40" as="geometry" />
        </mxCell>
        <mxCell id="VwRyxHcg7Cd_OR6Td61z-542" value="" style="endArrow=classic;html=1;rounded=0;exitX=1;exitY=0.5;exitDx=0;exitDy=0;entryX=0;entryY=0.5;entryDx=0;entryDy=0;" parent="1" source="VwRyxHcg7Cd_OR6Td61z-539" target="VwRyxHcg7Cd_OR6Td61z-540" edge="1">
          <mxGeometry width="50" height="50" relative="1" as="geometry">
            <mxPoint x="950" y="180" as="sourcePoint" />
            <mxPoint x="930" y="173" as="targetPoint" />
          </mxGeometry>
        </mxCell>
        <mxCell id="VwRyxHcg7Cd_OR6Td61z-543" value="" style="endArrow=classic;html=1;rounded=0;exitX=1;exitY=0.5;exitDx=0;exitDy=0;entryX=0;entryY=0.5;entryDx=0;entryDy=0;" parent="1" source="VwRyxHcg7Cd_OR6Td61z-540" target="VwRyxHcg7Cd_OR6Td61z-541" edge="1">
          <mxGeometry width="50" height="50" relative="1" as="geometry">
            <mxPoint x="1110" y="180" as="sourcePoint" />
            <mxPoint x="1030" y="173" as="targetPoint" />
          </mxGeometry>
        </mxCell>
        <mxCell id="VwRyxHcg7Cd_OR6Td61z-545" value="" style="endArrow=none;html=1;rounded=0;entryX=0.5;entryY=1;entryDx=0;entryDy=0;" parent="1" target="VwRyxHcg7Cd_OR6Td61z-534" edge="1">
          <mxGeometry width="50" height="50" relative="1" as="geometry">
            <mxPoint x="670" y="210" as="sourcePoint" />
            <mxPoint x="550" y="150" as="targetPoint" />
          </mxGeometry>
        </mxCell>
        <mxCell id="VwRyxHcg7Cd_OR6Td61z-546" value="" style="endArrow=none;html=1;rounded=0;" parent="1" edge="1">
          <mxGeometry width="50" height="50" relative="1" as="geometry">
            <mxPoint x="670" y="210" as="sourcePoint" />
            <mxPoint x="970" y="210" as="targetPoint" />
          </mxGeometry>
        </mxCell>
        <mxCell id="VwRyxHcg7Cd_OR6Td61z-547" value="" style="endArrow=classic;html=1;rounded=0;entryX=0.5;entryY=1;entryDx=0;entryDy=0;" parent="1" target="VwRyxHcg7Cd_OR6Td61z-540" edge="1">
          <mxGeometry width="50" height="50" relative="1" as="geometry">
            <mxPoint x="970" y="210" as="sourcePoint" />
            <mxPoint x="750" y="150" as="targetPoint" />
          </mxGeometry>
        </mxCell>
        <mxCell id="VwRyxHcg7Cd_OR6Td61z-548" value="" style="endArrow=none;html=1;rounded=0;entryX=0.5;entryY=1;entryDx=0;entryDy=0;" parent="1" target="VwRyxHcg7Cd_OR6Td61z-537" edge="1">
          <mxGeometry width="50" height="50" relative="1" as="geometry">
            <mxPoint x="770" y="200" as="sourcePoint" />
            <mxPoint x="750" y="150" as="targetPoint" />
          </mxGeometry>
        </mxCell>
        <mxCell id="VwRyxHcg7Cd_OR6Td61z-549" value="" style="endArrow=none;html=1;rounded=0;" parent="1" edge="1">
          <mxGeometry width="50" height="50" relative="1" as="geometry">
            <mxPoint x="770" y="200" as="sourcePoint" />
            <mxPoint x="870" y="200" as="targetPoint" />
          </mxGeometry>
        </mxCell>
        <mxCell id="VwRyxHcg7Cd_OR6Td61z-550" value="" style="endArrow=none;html=1;rounded=0;entryX=0.5;entryY=1;entryDx=0;entryDy=0;" parent="1" target="VwRyxHcg7Cd_OR6Td61z-539" edge="1">
          <mxGeometry width="50" height="50" relative="1" as="geometry">
            <mxPoint x="870" y="200" as="sourcePoint" />
            <mxPoint x="750" y="150" as="targetPoint" />
          </mxGeometry>
        </mxCell>
        <mxCell id="VwRyxHcg7Cd_OR6Td61z-551" value="N" style="text;strokeColor=none;fillColor=none;align=left;verticalAlign=middle;spacingLeft=4;spacingRight=4;overflow=hidden;points=[[0,0.5],[1,0.5]];portConstraint=eastwest;rotatable=0;whiteSpace=wrap;html=1;" parent="1" vertex="1">
          <mxGeometry x="810" y="173" width="80" height="30" as="geometry" />
        </mxCell>
        <mxCell id="VwRyxHcg7Cd_OR6Td61z-552" value="" style="endArrow=classic;html=1;rounded=0;exitX=1;exitY=0.5;exitDx=0;exitDy=0;" parent="1" source="VwRyxHcg7Cd_OR6Td61z-541" edge="1">
          <mxGeometry width="50" height="50" relative="1" as="geometry">
            <mxPoint x="700" y="200" as="sourcePoint" />
            <mxPoint x="1140" y="160" as="targetPoint" />
          </mxGeometry>
        </mxCell>
        <mxCell id="VwRyxHcg7Cd_OR6Td61z-554" value="" style="endArrow=classic;html=1;rounded=0;exitX=1;exitY=0.5;exitDx=0;exitDy=0;" parent="1" source="VwRyxHcg7Cd_OR6Td61z-518" edge="1">
          <mxGeometry width="50" height="50" relative="1" as="geometry">
            <mxPoint x="700" y="420" as="sourcePoint" />
            <mxPoint x="1230" y="273" as="targetPoint" />
          </mxGeometry>
        </mxCell>
        <mxCell id="VwRyxHcg7Cd_OR6Td61z-555" value="" style="endArrow=none;html=1;rounded=0;" parent="1" edge="1">
          <mxGeometry width="50" height="50" relative="1" as="geometry">
            <mxPoint x="620" y="220" as="sourcePoint" />
            <mxPoint x="620" y="130" as="targetPoint" />
          </mxGeometry>
        </mxCell>
        <mxCell id="VwRyxHcg7Cd_OR6Td61z-556" value="" style="endArrow=none;html=1;rounded=0;" parent="1" edge="1">
          <mxGeometry width="50" height="50" relative="1" as="geometry">
            <mxPoint x="1200" y="130" as="sourcePoint" />
            <mxPoint x="620" y="130" as="targetPoint" />
          </mxGeometry>
        </mxCell>
        <mxCell id="VwRyxHcg7Cd_OR6Td61z-557" value="" style="endArrow=none;html=1;rounded=0;" parent="1" edge="1">
          <mxGeometry width="50" height="50" relative="1" as="geometry">
            <mxPoint x="620" y="220" as="sourcePoint" />
            <mxPoint x="1200" y="220" as="targetPoint" />
          </mxGeometry>
        </mxCell>
        <mxCell id="VwRyxHcg7Cd_OR6Td61z-558" value="" style="endArrow=none;html=1;rounded=0;" parent="1" edge="1">
          <mxGeometry width="50" height="50" relative="1" as="geometry">
            <mxPoint x="1200" y="220" as="sourcePoint" />
            <mxPoint x="1200" y="130" as="targetPoint" />
          </mxGeometry>
        </mxCell>
        <mxCell id="VwRyxHcg7Cd_OR6Td61z-559" value="C2PSA" style="text;strokeColor=none;fillColor=none;align=left;verticalAlign=middle;spacingLeft=4;spacingRight=4;overflow=hidden;points=[[0,0.5],[1,0.5]];portConstraint=eastwest;rotatable=0;whiteSpace=wrap;html=1;" parent="1" vertex="1">
          <mxGeometry x="1120" y="183" width="80" height="30" as="geometry" />
        </mxCell>
        <mxCell id="VwRyxHcg7Cd_OR6Td61z-560" value="Conv" style="rounded=1;whiteSpace=wrap;html=1;fillColor=#fad9d5;strokeColor=#ae4132;" parent="1" vertex="1">
          <mxGeometry x="250" y="690" width="80" height="40" as="geometry" />
        </mxCell>
        <mxCell id="VwRyxHcg7Cd_OR6Td61z-561" value="Conv" style="rounded=1;whiteSpace=wrap;html=1;fillColor=#fad9d5;strokeColor=#ae4132;" parent="1" vertex="1">
          <mxGeometry x="350" y="690" width="80" height="40" as="geometry" />
        </mxCell>
        <mxCell id="VwRyxHcg7Cd_OR6Td61z-562" value="" style="endArrow=classic;html=1;rounded=0;entryX=0;entryY=0.5;entryDx=0;entryDy=0;" parent="1" target="VwRyxHcg7Cd_OR6Td61z-561" edge="1">
          <mxGeometry width="50" height="50" relative="1" as="geometry">
            <mxPoint x="330" y="710" as="sourcePoint" />
            <mxPoint x="770" y="580" as="targetPoint" />
          </mxGeometry>
        </mxCell>
        <mxCell id="VwRyxHcg7Cd_OR6Td61z-563" value="" style="endArrow=classic;html=1;rounded=0;entryX=0;entryY=0.5;entryDx=0;entryDy=0;" parent="1" target="VwRyxHcg7Cd_OR6Td61z-565" edge="1">
          <mxGeometry width="50" height="50" relative="1" as="geometry">
            <mxPoint x="430" y="710" as="sourcePoint" />
            <mxPoint x="430" y="710" as="targetPoint" />
          </mxGeometry>
        </mxCell>
        <mxCell id="VwRyxHcg7Cd_OR6Td61z-565" value="Conv2d" style="rounded=1;whiteSpace=wrap;html=1;fillColor=#e6d0de;strokeColor=#996185;gradientColor=#d5739d;" parent="1" vertex="1">
          <mxGeometry x="450" y="690" width="80" height="40" as="geometry" />
        </mxCell>
        <mxCell id="VwRyxHcg7Cd_OR6Td61z-568" value="CIoU" style="rounded=1;whiteSpace=wrap;html=1;fillColor=#cdeb8b;strokeColor=#36393d;" parent="1" vertex="1">
          <mxGeometry x="550" y="690" width="80" height="40" as="geometry" />
        </mxCell>
        <mxCell id="VwRyxHcg7Cd_OR6Td61z-570" value="" style="endArrow=classic;html=1;rounded=0;exitX=1;exitY=0.5;exitDx=0;exitDy=0;entryX=0;entryY=0.5;entryDx=0;entryDy=0;" parent="1" source="VwRyxHcg7Cd_OR6Td61z-565" target="VwRyxHcg7Cd_OR6Td61z-568" edge="1">
          <mxGeometry width="50" height="50" relative="1" as="geometry">
            <mxPoint x="550" y="760" as="sourcePoint" />
            <mxPoint x="570" y="760" as="targetPoint" />
            <Array as="points" />
          </mxGeometry>
        </mxCell>
        <mxCell id="VwRyxHcg7Cd_OR6Td61z-571" value="" style="endArrow=classic;html=1;rounded=0;entryX=0;entryY=0.5;entryDx=0;entryDy=0;" parent="1" target="VwRyxHcg7Cd_OR6Td61z-560" edge="1">
          <mxGeometry width="50" height="50" relative="1" as="geometry">
            <mxPoint x="230" y="710" as="sourcePoint" />
            <mxPoint x="260" y="740" as="targetPoint" />
            <Array as="points" />
          </mxGeometry>
        </mxCell>
        <mxCell id="VwRyxHcg7Cd_OR6Td61z-572" value="DWConv" style="rounded=1;whiteSpace=wrap;html=1;fillColor=#b0e3e6;strokeColor=#0e8088;" parent="1" vertex="1">
          <mxGeometry x="220" y="760" width="80" height="40" as="geometry" />
        </mxCell>
        <mxCell id="VwRyxHcg7Cd_OR6Td61z-573" value="Conv" style="rounded=1;whiteSpace=wrap;html=1;fillColor=#f8cecc;strokeColor=#b85450;" parent="1" vertex="1">
          <mxGeometry x="320" y="760" width="80" height="40" as="geometry" />
        </mxCell>
        <mxCell id="VwRyxHcg7Cd_OR6Td61z-574" value="" style="endArrow=classic;html=1;rounded=0;exitX=1;exitY=0.5;exitDx=0;exitDy=0;" parent="1" source="VwRyxHcg7Cd_OR6Td61z-572" edge="1">
          <mxGeometry width="50" height="50" relative="1" as="geometry">
            <mxPoint x="470" y="770" as="sourcePoint" />
            <mxPoint x="320" y="780" as="targetPoint" />
          </mxGeometry>
        </mxCell>
        <mxCell id="VwRyxHcg7Cd_OR6Td61z-575" value="DWConv" style="rounded=1;whiteSpace=wrap;html=1;fillColor=#b0e3e6;strokeColor=#0e8088;" parent="1" vertex="1">
          <mxGeometry x="420" y="760" width="80" height="40" as="geometry" />
        </mxCell>
        <mxCell id="VwRyxHcg7Cd_OR6Td61z-576" value="Conv" style="rounded=1;whiteSpace=wrap;html=1;fillColor=#f8cecc;strokeColor=#b85450;" parent="1" vertex="1">
          <mxGeometry x="520" y="760" width="80" height="40" as="geometry" />
        </mxCell>
        <mxCell id="VwRyxHcg7Cd_OR6Td61z-577" value="Conv2d" style="rounded=1;whiteSpace=wrap;html=1;fillColor=#e6d0de;strokeColor=#996185;gradientColor=#d5739d;" parent="1" vertex="1">
          <mxGeometry x="620" y="760" width="80" height="40" as="geometry" />
        </mxCell>
        <mxCell id="VwRyxHcg7Cd_OR6Td61z-578" value="" style="endArrow=classic;html=1;rounded=0;exitX=1;exitY=0.5;exitDx=0;exitDy=0;" parent="1" source="VwRyxHcg7Cd_OR6Td61z-573" edge="1">
          <mxGeometry width="50" height="50" relative="1" as="geometry">
            <mxPoint x="720" y="760" as="sourcePoint" />
            <mxPoint x="420" y="780" as="targetPoint" />
          </mxGeometry>
        </mxCell>
        <mxCell id="VwRyxHcg7Cd_OR6Td61z-580" value="" style="endArrow=classic;html=1;rounded=0;exitX=1;exitY=0.5;exitDx=0;exitDy=0;" parent="1" source="VwRyxHcg7Cd_OR6Td61z-576" edge="1">
          <mxGeometry width="50" height="50" relative="1" as="geometry">
            <mxPoint x="680" y="690" as="sourcePoint" />
            <mxPoint x="620" y="780" as="targetPoint" />
          </mxGeometry>
        </mxCell>
        <mxCell id="VwRyxHcg7Cd_OR6Td61z-582" value="" style="endArrow=classic;html=1;rounded=0;exitX=1;exitY=0.5;exitDx=0;exitDy=0;entryX=0;entryY=0.5;entryDx=0;entryDy=0;" parent="1" source="VwRyxHcg7Cd_OR6Td61z-575" target="VwRyxHcg7Cd_OR6Td61z-576" edge="1">
          <mxGeometry width="50" height="50" relative="1" as="geometry">
            <mxPoint x="720" y="760" as="sourcePoint" />
            <mxPoint x="770" y="710" as="targetPoint" />
          </mxGeometry>
        </mxCell>
        <mxCell id="VwRyxHcg7Cd_OR6Td61z-583" value="CLSLOss" style="rounded=1;whiteSpace=wrap;html=1;fillColor=#bac8d3;strokeColor=#23445d;" parent="1" vertex="1">
          <mxGeometry x="720" y="760" width="80" height="40" as="geometry" />
        </mxCell>
        <mxCell id="VwRyxHcg7Cd_OR6Td61z-584" value="" style="endArrow=classic;html=1;rounded=0;exitX=1;exitY=0.5;exitDx=0;exitDy=0;entryX=0;entryY=0.5;entryDx=0;entryDy=0;" parent="1" source="VwRyxHcg7Cd_OR6Td61z-577" target="VwRyxHcg7Cd_OR6Td61z-583" edge="1">
          <mxGeometry width="50" height="50" relative="1" as="geometry">
            <mxPoint x="720" y="760" as="sourcePoint" />
            <mxPoint x="770" y="710" as="targetPoint" />
          </mxGeometry>
        </mxCell>
        <mxCell id="VwRyxHcg7Cd_OR6Td61z-585" value="" style="endArrow=none;html=1;rounded=0;" parent="1" edge="1">
          <mxGeometry width="50" height="50" relative="1" as="geometry">
            <mxPoint x="810" y="680" as="sourcePoint" />
            <mxPoint x="210" y="680" as="targetPoint" />
          </mxGeometry>
        </mxCell>
        <mxCell id="VwRyxHcg7Cd_OR6Td61z-586" value="" style="endArrow=none;html=1;rounded=0;" parent="1" edge="1">
          <mxGeometry width="50" height="50" relative="1" as="geometry">
            <mxPoint x="810" y="820" as="sourcePoint" />
            <mxPoint x="810" y="680" as="targetPoint" />
          </mxGeometry>
        </mxCell>
        <mxCell id="VwRyxHcg7Cd_OR6Td61z-587" value="" style="endArrow=none;html=1;rounded=0;" parent="1" edge="1">
          <mxGeometry width="50" height="50" relative="1" as="geometry">
            <mxPoint x="210" y="820" as="sourcePoint" />
            <mxPoint x="210" y="680" as="targetPoint" />
          </mxGeometry>
        </mxCell>
        <mxCell id="VwRyxHcg7Cd_OR6Td61z-588" value="" style="endArrow=none;html=1;rounded=0;" parent="1" edge="1">
          <mxGeometry width="50" height="50" relative="1" as="geometry">
            <mxPoint x="210" y="820" as="sourcePoint" />
            <mxPoint x="810" y="820" as="targetPoint" />
            <Array as="points">
              <mxPoint x="660" y="820" />
            </Array>
          </mxGeometry>
        </mxCell>
        <mxCell id="VwRyxHcg7Cd_OR6Td61z-590" value="Detect" style="text;html=1;align=center;verticalAlign=middle;whiteSpace=wrap;rounded=0;" parent="1" vertex="1">
          <mxGeometry x="685" y="690" width="60" height="30" as="geometry" />
        </mxCell>
        <mxCell id="VwRyxHcg7Cd_OR6Td61z-591" value="Attention" style="rounded=1;whiteSpace=wrap;html=1;fillColor=#f8cecc;gradientColor=#ea6b66;strokeColor=#b85450;" parent="1" vertex="1">
          <mxGeometry x="310" y="590" width="80" height="40" as="geometry" />
        </mxCell>
        <mxCell id="VwRyxHcg7Cd_OR6Td61z-592" value="Conv" style="rounded=1;whiteSpace=wrap;html=1;fillColor=#f8cecc;strokeColor=#b85450;" parent="1" vertex="1">
          <mxGeometry x="510" y="590" width="80" height="40" as="geometry" />
        </mxCell>
        <mxCell id="VwRyxHcg7Cd_OR6Td61z-593" value="Conv" style="rounded=1;whiteSpace=wrap;html=1;fillColor=#f8cecc;strokeColor=#b85450;" parent="1" vertex="1">
          <mxGeometry x="620" y="590" width="80" height="40" as="geometry" />
        </mxCell>
        <mxCell id="VwRyxHcg7Cd_OR6Td61z-594" value="" style="endArrow=classic;html=1;rounded=0;exitX=1;exitY=0.5;exitDx=0;exitDy=0;" parent="1" source="VwRyxHcg7Cd_OR6Td61z-591" edge="1">
          <mxGeometry width="50" height="50" relative="1" as="geometry">
            <mxPoint x="580" y="780" as="sourcePoint" />
            <mxPoint x="430" y="610" as="targetPoint" />
          </mxGeometry>
        </mxCell>
        <mxCell id="VwRyxHcg7Cd_OR6Td61z-595" value="" style="endArrow=classic;html=1;rounded=0;exitX=1;exitY=0.5;exitDx=0;exitDy=0;entryX=0;entryY=0.5;entryDx=0;entryDy=0;" parent="1" source="VwRyxHcg7Cd_OR6Td61z-592" target="VwRyxHcg7Cd_OR6Td61z-593" edge="1">
          <mxGeometry width="50" height="50" relative="1" as="geometry">
            <mxPoint x="580" y="780" as="sourcePoint" />
            <mxPoint x="630" y="730" as="targetPoint" />
          </mxGeometry>
        </mxCell>
        <mxCell id="VwRyxHcg7Cd_OR6Td61z-596" value="" style="endArrow=classic;html=1;rounded=0;entryX=0;entryY=0.5;entryDx=0;entryDy=0;" parent="1" target="VwRyxHcg7Cd_OR6Td61z-591" edge="1">
          <mxGeometry width="50" height="50" relative="1" as="geometry">
            <mxPoint x="270" y="610" as="sourcePoint" />
            <mxPoint x="630" y="730" as="targetPoint" />
          </mxGeometry>
        </mxCell>
        <mxCell id="VwRyxHcg7Cd_OR6Td61z-606" value="" style="endArrow=classic;html=1;rounded=0;entryX=0;entryY=0.5;entryDx=0;entryDy=0;" parent="1" edge="1" target="Yvf-gRRoff70kormsGsb-20">
          <mxGeometry width="50" height="50" relative="1" as="geometry">
            <mxPoint x="465" y="610" as="sourcePoint" />
            <mxPoint x="733" y="628" as="targetPoint" />
            <Array as="points">
              <mxPoint x="465" y="645" />
              <mxPoint x="736" y="645" />
            </Array>
          </mxGeometry>
        </mxCell>
        <mxCell id="VwRyxHcg7Cd_OR6Td61z-607" value="" style="endArrow=classic;html=1;rounded=0;exitX=1;exitY=0.5;exitDx=0;exitDy=0;entryX=0.5;entryY=0;entryDx=0;entryDy=0;" parent="1" source="VwRyxHcg7Cd_OR6Td61z-593" edge="1" target="Yvf-gRRoff70kormsGsb-20">
          <mxGeometry width="50" height="50" relative="1" as="geometry">
            <mxPoint x="580" y="530" as="sourcePoint" />
            <mxPoint x="727" y="612" as="targetPoint" />
          </mxGeometry>
        </mxCell>
        <mxCell id="VwRyxHcg7Cd_OR6Td61z-608" value="shortcut" style="text;html=1;align=center;verticalAlign=middle;whiteSpace=wrap;rounded=0;" parent="1" vertex="1">
          <mxGeometry x="315" y="623" width="60" height="30" as="geometry" />
        </mxCell>
        <mxCell id="VwRyxHcg7Cd_OR6Td61z-609" value="shortcut" style="text;html=1;align=center;verticalAlign=middle;whiteSpace=wrap;rounded=0;" parent="1" vertex="1">
          <mxGeometry x="567" y="623" width="60" height="30" as="geometry" />
        </mxCell>
        <mxCell id="VwRyxHcg7Cd_OR6Td61z-610" value="" style="endArrow=none;html=1;rounded=0;" parent="1" edge="1">
          <mxGeometry width="50" height="50" relative="1" as="geometry">
            <mxPoint x="253" y="583" as="sourcePoint" />
            <mxPoint x="253" y="583" as="targetPoint" />
            <Array as="points">
              <mxPoint x="785" y="583" />
              <mxPoint x="785" y="660" />
              <mxPoint x="253" y="660" />
            </Array>
          </mxGeometry>
        </mxCell>
        <mxCell id="VwRyxHcg7Cd_OR6Td61z-611" value="PSABlock" style="text;html=1;align=center;verticalAlign=middle;whiteSpace=wrap;rounded=0;" parent="1" vertex="1">
          <mxGeometry x="448" y="579" width="60" height="30" as="geometry" />
        </mxCell>
        <mxCell id="VwRyxHcg7Cd_OR6Td61z-612" value="Conv" style="rounded=1;whiteSpace=wrap;html=1;fillColor=#fad9d5;strokeColor=#ae4132;" parent="1" vertex="1">
          <mxGeometry x="680" y="440" width="80" height="40" as="geometry" />
        </mxCell>
        <mxCell id="VwRyxHcg7Cd_OR6Td61z-613" value="Conv" style="rounded=1;whiteSpace=wrap;html=1;fillColor=#fad9d5;strokeColor=#ae4132;" parent="1" vertex="1">
          <mxGeometry x="800" y="440" width="80" height="40" as="geometry" />
        </mxCell>
        <mxCell id="VwRyxHcg7Cd_OR6Td61z-614" value="" style="endArrow=classic;html=1;rounded=0;entryX=0;entryY=0.5;entryDx=0;entryDy=0;" parent="1" target="VwRyxHcg7Cd_OR6Td61z-612" edge="1">
          <mxGeometry width="50" height="50" relative="1" as="geometry">
            <mxPoint x="640" y="460" as="sourcePoint" />
            <mxPoint x="630" y="360" as="targetPoint" />
          </mxGeometry>
        </mxCell>
        <mxCell id="VwRyxHcg7Cd_OR6Td61z-615" value="" style="endArrow=classic;html=1;rounded=0;exitX=1;exitY=0.5;exitDx=0;exitDy=0;entryX=0;entryY=0.5;entryDx=0;entryDy=0;" parent="1" source="VwRyxHcg7Cd_OR6Td61z-612" target="VwRyxHcg7Cd_OR6Td61z-613" edge="1">
          <mxGeometry width="50" height="50" relative="1" as="geometry">
            <mxPoint x="580" y="430" as="sourcePoint" />
            <mxPoint x="630" y="380" as="targetPoint" />
          </mxGeometry>
        </mxCell>
        <mxCell id="VwRyxHcg7Cd_OR6Td61z-616" value="" style="endArrow=classic;html=1;rounded=0;exitX=1;exitY=0.5;exitDx=0;exitDy=0;" parent="1" source="VwRyxHcg7Cd_OR6Td61z-613" edge="1">
          <mxGeometry width="50" height="50" relative="1" as="geometry">
            <mxPoint x="580" y="430" as="sourcePoint" />
            <mxPoint x="907" y="460" as="targetPoint" />
          </mxGeometry>
        </mxCell>
        <mxCell id="VwRyxHcg7Cd_OR6Td61z-618" value="shortcut" style="text;html=1;align=center;verticalAlign=middle;whiteSpace=wrap;rounded=0;" parent="1" vertex="1">
          <mxGeometry x="750" y="420" width="60" height="30" as="geometry" />
        </mxCell>
        <mxCell id="VwRyxHcg7Cd_OR6Td61z-620" value="" style="endArrow=none;html=1;rounded=0;" parent="1" edge="1">
          <mxGeometry width="50" height="50" relative="1" as="geometry">
            <mxPoint x="630" y="490" as="sourcePoint" />
            <mxPoint x="630" y="410" as="targetPoint" />
            <Array as="points">
              <mxPoint x="980" y="490" />
              <mxPoint x="980" y="410" />
            </Array>
          </mxGeometry>
        </mxCell>
        <mxCell id="VwRyxHcg7Cd_OR6Td61z-621" value="" style="endArrow=none;html=1;rounded=0;" parent="1" edge="1">
          <mxGeometry width="50" height="50" relative="1" as="geometry">
            <mxPoint x="630" y="490" as="sourcePoint" />
            <mxPoint x="630" y="410" as="targetPoint" />
          </mxGeometry>
        </mxCell>
        <mxCell id="VwRyxHcg7Cd_OR6Td61z-622" value="Bottleneck" style="text;html=1;align=center;verticalAlign=middle;whiteSpace=wrap;rounded=0;" parent="1" vertex="1">
          <mxGeometry x="920" y="420" width="60" height="30" as="geometry" />
        </mxCell>
        <mxCell id="Yvf-gRRoff70kormsGsb-3" value="" style="endArrow=none;html=1;rounded=0;entryX=0;entryY=0.5;entryDx=0;entryDy=0;exitX=1;exitY=0.5;exitDx=0;exitDy=0;" edge="1" parent="1" source="Yvf-gRRoff70kormsGsb-1" target="Yvf-gRRoff70kormsGsb-1">
          <mxGeometry width="50" height="50" relative="1" as="geometry">
            <mxPoint x="-120" y="450" as="sourcePoint" />
            <mxPoint x="-70" y="400" as="targetPoint" />
            <Array as="points" />
          </mxGeometry>
        </mxCell>
        <mxCell id="Yvf-gRRoff70kormsGsb-4" value="" style="endArrow=none;html=1;rounded=0;entryX=0.5;entryY=0;entryDx=0;entryDy=0;exitX=0.5;exitY=1;exitDx=0;exitDy=0;" edge="1" parent="1" source="Yvf-gRRoff70kormsGsb-1" target="Yvf-gRRoff70kormsGsb-1">
          <mxGeometry width="50" height="50" relative="1" as="geometry">
            <mxPoint x="-120" y="450" as="sourcePoint" />
            <mxPoint x="-70" y="400" as="targetPoint" />
            <Array as="points" />
          </mxGeometry>
        </mxCell>
        <mxCell id="Yvf-gRRoff70kormsGsb-1" value="" style="ellipse;whiteSpace=wrap;html=1;aspect=fixed;rotation=90;direction=west;" vertex="1" parent="1">
          <mxGeometry x="907" y="451" width="18" height="18" as="geometry" />
        </mxCell>
        <mxCell id="Yvf-gRRoff70kormsGsb-6" value="" style="endArrow=none;html=1;rounded=0;entryX=0.5;entryY=1;entryDx=0;entryDy=0;exitX=0.5;exitY=0;exitDx=0;exitDy=0;" edge="1" parent="1" source="Yvf-gRRoff70kormsGsb-1" target="Yvf-gRRoff70kormsGsb-1">
          <mxGeometry width="50" height="50" relative="1" as="geometry">
            <mxPoint x="844" y="480" as="sourcePoint" />
            <mxPoint x="894" y="430" as="targetPoint" />
          </mxGeometry>
        </mxCell>
        <mxCell id="Yvf-gRRoff70kormsGsb-7" value="" style="endArrow=none;html=1;rounded=0;entryX=1;entryY=0.5;entryDx=0;entryDy=0;exitX=0;exitY=0.5;exitDx=0;exitDy=0;" edge="1" parent="1" source="Yvf-gRRoff70kormsGsb-1" target="Yvf-gRRoff70kormsGsb-1">
          <mxGeometry width="50" height="50" relative="1" as="geometry">
            <mxPoint x="844" y="480" as="sourcePoint" />
            <mxPoint x="894" y="430" as="targetPoint" />
          </mxGeometry>
        </mxCell>
        <mxCell id="Yvf-gRRoff70kormsGsb-10" value="" style="endArrow=classic;html=1;rounded=0;entryX=1;entryY=0.5;entryDx=0;entryDy=0;" edge="1" parent="1" target="Yvf-gRRoff70kormsGsb-1">
          <mxGeometry width="50" height="50" relative="1" as="geometry">
            <mxPoint x="657" y="460" as="sourcePoint" />
            <mxPoint x="917" y="425" as="targetPoint" />
            <Array as="points">
              <mxPoint x="657" y="425" />
              <mxPoint x="916" y="425" />
            </Array>
          </mxGeometry>
        </mxCell>
        <mxCell id="Yvf-gRRoff70kormsGsb-11" value="" style="endArrow=classic;html=1;rounded=0;exitX=0.5;exitY=1;exitDx=0;exitDy=0;" edge="1" parent="1" source="Yvf-gRRoff70kormsGsb-1">
          <mxGeometry width="50" height="50" relative="1" as="geometry">
            <mxPoint x="900" y="479" as="sourcePoint" />
            <mxPoint x="950" y="460" as="targetPoint" />
          </mxGeometry>
        </mxCell>
        <mxCell id="Yvf-gRRoff70kormsGsb-15" value="" style="ellipse;whiteSpace=wrap;html=1;aspect=fixed;rotation=90;direction=west;" vertex="1" parent="1">
          <mxGeometry x="430" y="600" width="18" height="18" as="geometry" />
        </mxCell>
        <mxCell id="Yvf-gRRoff70kormsGsb-16" value="" style="endArrow=none;html=1;rounded=0;entryX=0.5;entryY=0;entryDx=0;entryDy=0;exitX=0.5;exitY=1;exitDx=0;exitDy=0;" edge="1" parent="1" source="Yvf-gRRoff70kormsGsb-15" target="Yvf-gRRoff70kormsGsb-15">
          <mxGeometry width="50" height="50" relative="1" as="geometry">
            <mxPoint x="673" y="543" as="sourcePoint" />
            <mxPoint x="723" y="493" as="targetPoint" />
          </mxGeometry>
        </mxCell>
        <mxCell id="Yvf-gRRoff70kormsGsb-17" value="" style="endArrow=none;html=1;rounded=0;entryX=1;entryY=0.5;entryDx=0;entryDy=0;exitX=0;exitY=0.5;exitDx=0;exitDy=0;" edge="1" parent="1" source="Yvf-gRRoff70kormsGsb-15" target="Yvf-gRRoff70kormsGsb-15">
          <mxGeometry width="50" height="50" relative="1" as="geometry">
            <mxPoint x="673" y="543" as="sourcePoint" />
            <mxPoint x="723" y="493" as="targetPoint" />
          </mxGeometry>
        </mxCell>
        <mxCell id="Yvf-gRRoff70kormsGsb-18" value="" style="endArrow=classic;html=1;rounded=0;entryX=0;entryY=0.5;entryDx=0;entryDy=0;" edge="1" parent="1" target="Yvf-gRRoff70kormsGsb-15">
          <mxGeometry width="50" height="50" relative="1" as="geometry">
            <mxPoint x="285" y="611" as="sourcePoint" />
            <mxPoint x="520" y="540" as="targetPoint" />
            <Array as="points">
              <mxPoint x="285" y="646" />
              <mxPoint x="439" y="646" />
            </Array>
          </mxGeometry>
        </mxCell>
        <mxCell id="Yvf-gRRoff70kormsGsb-19" value="" style="endArrow=classic;html=1;rounded=0;exitX=0.5;exitY=1;exitDx=0;exitDy=0;" edge="1" parent="1" source="Yvf-gRRoff70kormsGsb-15" target="VwRyxHcg7Cd_OR6Td61z-592">
          <mxGeometry width="50" height="50" relative="1" as="geometry">
            <mxPoint x="467" y="588" as="sourcePoint" />
            <mxPoint x="517" y="538" as="targetPoint" />
          </mxGeometry>
        </mxCell>
        <mxCell id="Yvf-gRRoff70kormsGsb-20" value="" style="ellipse;whiteSpace=wrap;html=1;aspect=fixed;rotation=90;direction=west;" vertex="1" parent="1">
          <mxGeometry x="727" y="602" width="18" height="18" as="geometry" />
        </mxCell>
        <mxCell id="Yvf-gRRoff70kormsGsb-21" value="" style="endArrow=none;html=1;rounded=0;exitX=0.5;exitY=0;exitDx=0;exitDy=0;entryX=0.5;entryY=1;entryDx=0;entryDy=0;" edge="1" parent="1" source="Yvf-gRRoff70kormsGsb-20" target="Yvf-gRRoff70kormsGsb-20">
          <mxGeometry width="50" height="50" relative="1" as="geometry">
            <mxPoint x="721" y="587" as="sourcePoint" />
            <mxPoint x="771" y="537" as="targetPoint" />
          </mxGeometry>
        </mxCell>
        <mxCell id="Yvf-gRRoff70kormsGsb-22" value="" style="endArrow=none;html=1;rounded=0;exitX=0;exitY=0.5;exitDx=0;exitDy=0;entryX=1;entryY=0.5;entryDx=0;entryDy=0;" edge="1" parent="1" source="Yvf-gRRoff70kormsGsb-20" target="Yvf-gRRoff70kormsGsb-20">
          <mxGeometry width="50" height="50" relative="1" as="geometry">
            <mxPoint x="721" y="587" as="sourcePoint" />
            <mxPoint x="771" y="537" as="targetPoint" />
          </mxGeometry>
        </mxCell>
        <mxCell id="Yvf-gRRoff70kormsGsb-23" value="" style="endArrow=classic;html=1;rounded=0;exitX=0.5;exitY=1;exitDx=0;exitDy=0;" edge="1" parent="1" source="Yvf-gRRoff70kormsGsb-20">
          <mxGeometry width="50" height="50" relative="1" as="geometry">
            <mxPoint x="721" y="587" as="sourcePoint" />
            <mxPoint x="772" y="611" as="targetPoint" />
          </mxGeometry>
        </mxCell>
      </root>
    </mxGraphModel>
  </diagram>
</mxfile>
